<svg width="108" height="93" viewBox="0 0 108 93" fill="none" xmlns="http://www.w3.org/2000/svg">
<g filter="url(#filter0_di_48_23)">
<mask id="path-1-inside-1_48_23" fill="white">
<path fill-rule="evenodd" clip-rule="evenodd" d="M46.1703 27.854C49.5662 29.5683 54.681 27.6357 57.7601 23.4142C60.9232 19.0774 60.7399 13.9672 57.3507 12.0003C55.2554 10.7843 52.4254 11.0543 49.8226 12.4624C47.4312 10.6014 44.5335 9.91765 42.1452 10.9265C38.4471 12.4885 37.3705 17.5169 39.7405 22.1576C41.2061 25.0275 43.6466 27.0771 46.1703 27.854Z"/>
</mask>
<path d="M57.7601 23.4142L55.3363 21.7412L57.7601 23.4142ZM46.1703 27.854L47.6343 25.1875L47.4156 25.0771L47.1799 25.0045L46.1703 27.854ZM57.3507 12.0003L55.7396 14.5871L57.3507 12.0003ZM49.8226 12.4624L47.8923 14.8339L49.4159 16.0196L51.1844 15.0629L49.8226 12.4624ZM42.1452 10.9265L43.2305 13.6598L42.1452 10.9265ZM39.7405 22.1576L42.4479 20.7258L42.4479 20.7258L39.7405 22.1576ZM55.3363 21.7412C54.1423 23.3782 52.5868 24.5188 51.1024 25.085C49.5992 25.6585 48.3996 25.5738 47.6343 25.1875L44.7063 30.5206C47.3369 31.8485 50.3927 31.6547 53.0656 30.635C55.7574 29.6082 58.2989 27.6716 60.1839 25.0872L55.3363 21.7412ZM55.7396 14.5871C56.4359 14.9912 56.9498 15.7747 56.9956 17.0512C57.0423 18.3553 56.5659 20.0553 55.3363 21.7412L60.1839 25.0872C62.1174 22.4363 63.1309 19.4128 63.0295 16.5858C62.9271 13.7314 61.6547 10.9763 58.9618 9.41349L55.7396 14.5871ZM51.1844 15.0629C53.1761 13.9855 54.8196 14.0532 55.7396 14.5871L58.9618 9.41349C55.6912 7.51548 51.6748 8.12322 48.4607 9.8619L51.1844 15.0629ZM43.2305 13.6598C44.2468 13.2305 46.0061 13.366 47.8923 14.8339L51.7529 10.0909C48.8563 7.83675 44.8202 6.6048 41.0598 8.19319L43.2305 13.6598ZM42.4479 20.7258C41.5167 18.9023 41.3466 17.1597 41.6198 15.8837C41.8862 14.6392 42.515 13.962 43.2305 13.6598L41.0598 8.19319C38.0773 9.45299 36.3187 12.071 35.7148 14.8914C35.1177 17.6802 35.5943 20.7722 37.033 23.5895L42.4479 20.7258ZM47.1799 25.0045C45.4819 24.4818 43.6077 22.9968 42.4479 20.7258L37.033 23.5895C38.8045 27.0583 41.8113 29.6725 45.1607 30.7035L47.1799 25.0045Z" fill="#FFB5B5" mask="url(#path-1-inside-1_48_23)"/>
<mask id="path-3-inside-2_48_23" fill="white">
<path fill-rule="evenodd" clip-rule="evenodd" d="M24.1001 38.7915C26.3491 39.0304 28.5213 37.012 29.0051 34.1873C29.502 31.2863 28.0299 28.6333 25.7171 28.2618C24.2875 28.0321 22.8712 28.7279 21.8807 29.9781C20.1213 29.4668 18.4124 29.6741 17.4272 30.6725C15.9019 32.2182 16.689 35.0747 19.1853 37.0526C20.7284 38.2753 22.5634 38.8761 24.1001 38.7915Z"/>
</mask>
<path d="M29.0051 34.1873L25.9813 33.516L29.0051 34.1873ZM24.1001 38.7915L24.2248 35.8741L23.9672 35.8467L23.7114 35.8608L24.1001 38.7915ZM25.7171 28.2618L25.4192 31.1561L25.4192 31.1561L25.7171 28.2618ZM21.8807 29.9781L21.1837 32.7827L23.1742 33.3611L24.3676 31.8549L21.8807 29.9781ZM17.4272 30.6725L15.133 28.578L15.133 28.578L17.4272 30.6725ZM19.1853 37.0526L17.3341 39.2612L17.3341 39.2612L19.1853 37.0526ZM25.9813 33.516C25.8324 34.3858 25.4308 35.0631 24.9972 35.4688C24.55 35.8873 24.2486 35.8766 24.2248 35.8741L23.9753 41.709C26.2005 41.9453 28.1097 41.0448 29.4319 39.8076C30.7676 38.5577 31.6941 36.8135 32.0289 34.8585L25.9813 33.516ZM25.4192 31.1561C25.4296 31.1578 25.4419 31.1584 25.4786 31.1863C25.5247 31.2214 25.624 31.3143 25.7319 31.5087C25.9549 31.9106 26.1351 32.6183 25.9813 33.516L32.0289 34.8585C32.372 32.8552 32.0647 30.786 31.0976 29.0432C30.1196 27.2807 28.3746 25.7465 26.0151 25.3674L25.4192 31.1561ZM24.3676 31.8549C24.6353 31.5169 24.9077 31.3231 25.1119 31.2293C25.307 31.1397 25.4046 31.1537 25.4192 31.1561L26.0151 25.3674C23.1565 24.9081 20.7914 26.3372 19.3937 28.1013L24.3676 31.8549ZM19.7214 32.767C19.7246 32.7638 19.7396 32.749 19.7822 32.7291C19.8271 32.7083 19.9068 32.6801 20.0315 32.6619C20.2892 32.6242 20.6853 32.6378 21.1837 32.7827L22.5776 27.1735C20.1625 26.4716 17.1226 26.5617 15.133 28.578L19.7214 32.767ZM21.0365 34.8441C20.2497 34.2207 19.8741 33.5669 19.7566 33.1403C19.6999 32.9347 19.7115 32.8187 19.7189 32.7811C19.7225 32.7629 19.7257 32.7588 19.7235 32.763C19.721 32.7678 19.7186 32.7699 19.7214 32.767L15.133 28.578C13.5504 30.1817 13.3142 32.3536 13.8397 34.2606C14.3585 36.1432 15.6246 37.9066 17.3341 39.2612L21.0365 34.8441ZM23.7114 35.8608C23.0707 35.8961 22.0251 35.6274 21.0365 34.8441L17.3341 39.2612C19.4317 40.9232 22.0561 41.8561 24.4887 41.7222L23.7114 35.8608Z" fill="#FFB5B5" mask="url(#path-3-inside-2_48_23)"/>
<path fill-rule="evenodd" clip-rule="evenodd" d="M10.7408 47H5.08638H2.00035C2.23819 48.0106 2.49883 49.0108 2.78162 50C9.74608 74.3609 30.1442 91.9985 54.2233 91.9985C78.3023 91.9985 98.7004 74.3609 105.665 50C105.948 49.0108 106.208 48.0106 106.446 47H103.36H98.259C97.7448 48.0185 97.2172 49.0188 96.6766 50H102.539C95.6661 72.8611 76.4689 88.9985 54.2233 88.9985C31.9776 88.9985 12.7804 72.8611 5.90745 50H12.3232C11.7826 49.0188 11.255 48.0185 10.7408 47Z" fill="#FFB5B5"/>
<path fill-rule="evenodd" clip-rule="evenodd" d="M103.597 3.05976L105.837 5.28572C106.549 5.9909 106.938 6.93291 106.938 7.93612C106.938 8.93933 106.546 9.88001 105.837 10.5865L83.7017 32.5907L80.6633 29.5704L72.8357 37.3499C73.0539 38.1562 73.1101 39.1249 73.1154 40.1547L73.1195 40.4873C73.1337 41.2951 73.0865 42.1355 72.978 43H67.4971C67.7335 42.6369 67.9655 42.2681 68.1884 41.8963L67.0781 43H63.294L66.3908 39.9218C64.8176 40.8273 63.2701 41.9358 61.8398 43H57.4189C57.874 42.6473 58.3256 42.3027 58.7746 41.9655L59.1802 41.6608C60.7945 40.4461 62.5961 39.1049 64.4887 37.962C61.0256 38.5346 57.1269 40.2069 52.7519 43H48.0319C57.0297 36.5323 64.4697 34.0663 70.6164 35.4766C70.6593 35.4695 70.7022 35.4619 70.745 35.4544C70.8307 35.4393 70.9163 35.4242 71.0019 35.4127L78.772 27.689L76.1298 25.0626L98.2661 3.05976C99.6849 1.64808 102.177 1.64542 103.597 3.05976ZM31.5857 59C28.9917 64.4196 29.5605 70.7382 33.438 74.5925C35.7389 76.8744 38.9098 78.0013 42.2481 78C46.0186 78 50.002 76.563 53.1783 73.7317C55.4953 71.6654 57.6048 69.3157 59.3984 67.2733C61.9199 64.405 64.0783 61.6635 65.9085 59H62.6384C61.1087 61.1051 59.3637 63.2704 57.3853 65.5211C55.6425 67.5035 53.5986 69.7827 51.3914 71.7505C47.9166 74.8467 43.3309 75.971 39.551 75.0263C41.0474 74.4608 42.4743 73.6173 43.6321 72.8642C45.5194 71.6348 47.3839 70.094 49.4988 68.0131C51.9469 65.6062 54.3924 63.0756 56.9757 60.2761C57.3527 59.8673 57.7434 59.4415 58.1454 59H54.5179C52.1428 61.561 49.8797 63.8953 47.6155 66.1211C45.6318 68.073 43.8998 69.5086 42.1651 70.6369C39.9887 72.0539 38.2325 72.8336 36.9168 72.9813L50.982 59H47.1972L35.1031 71.0214C35.1473 70.6981 35.2128 70.3602 35.3239 70.0022C36.2033 67.1616 38.3102 64.0721 41.5935 60.8083C42.1786 60.2153 42.7792 59.6158 43.4058 59H39.6289C36.3226 62.299 34.107 65.507 33.0043 68.5507C32.2323 65.5582 32.7849 62.0526 34.6139 59H31.5857ZM91.6351 20.9393L85.9558 19.0579L85.2316 19.7778L90.9109 21.6591L91.6351 20.9393ZM83.1168 21.88L79.9151 25.0626L83.7017 28.8253L88.7961 23.7613L83.1168 21.88ZM93.7499 18.8371L103.944 8.70383C104.15 8.50026 104.263 8.2275 104.26 7.93612C104.26 7.6434 104.147 7.37065 103.943 7.16708L101.703 4.94112C101.294 4.53265 100.567 4.53132 100.159 4.94112L88.0706 16.9557L93.7499 18.8371Z" fill="#FFB5B5"/>
<path d="M16.5747 56V45.4971H18.6768V56H16.5747ZM27.0923 49.269L30.8643 45.4971L32.3364 46.9692L32.3145 46.9912H32.3364V56H30.2344V49.0713L27.0776 52.228L23.9355 49.0859V56H21.8335V46.9912L23.3276 45.4971L27.0923 49.269ZM35.4858 56V45.4971H45.9888V47.5991H37.5879V49.7012H44.4946L45.9888 51.188V54.5059L44.4946 56H35.4858ZM43.8867 53.8979V51.7959H37.5879V53.8979H43.8867ZM49.1382 56V45.4971H51.2402V56H49.1382ZM55.8838 45.5264H63.3838C63.6816 45.8096 64.1772 46.3052 64.8706 47.0132V50.3237C64.5923 50.6216 64.0967 51.1172 63.3838 51.8105H56.4917V56H54.397V47.0132C54.6802 46.7153 55.1758 46.2197 55.8838 45.5264ZM56.4917 47.6211V49.7158H62.7759V47.6211H56.4917ZM70.1221 56H68.02V45.4971H70.1221V49.7012H72.854L77.0361 45.4971L78.5303 46.9912L74.7583 50.7632L78.5303 54.5278L77.0581 56L72.8467 51.8032H70.1221V56ZM83.1812 56V55.978L83.1592 56L81.687 54.5278L90.7178 45.4971L92.1899 46.9692L92.168 46.9912H92.1899V56H90.0879V49.0713L85.2612 53.8979H87.9858V56H83.1812Z" fill="#FFB5B5"/>
</g>
<defs>
<filter id="filter0_di_48_23" x="0.500351" y="0.5" width="106.938" height="92" filterUnits="userSpaceOnUse" color-interpolation-filters="sRGB">
<feFlood flood-opacity="0" result="BackgroundImageFix"/>
<feColorMatrix in="SourceAlpha" type="matrix" values="0 0 0 0 0 0 0 0 0 0 0 0 0 0 0 0 0 0 127 0" result="hardAlpha"/>
<feOffset dx="-0.5" dy="-0.5"/>
<feGaussianBlur stdDeviation="0.5"/>
<feComposite in2="hardAlpha" operator="out"/>
<feColorMatrix type="matrix" values="0 0 0 0 0 0 0 0 0 0 0 0 0 0 0 0 0 0 0.5 0"/>
<feBlend mode="normal" in2="BackgroundImageFix" result="effect1_dropShadow_48_23"/>
<feBlend mode="normal" in="SourceGraphic" in2="effect1_dropShadow_48_23" result="shape"/>
<feColorMatrix in="SourceAlpha" type="matrix" values="0 0 0 0 0 0 0 0 0 0 0 0 0 0 0 0 0 0 127 0" result="hardAlpha"/>
<feOffset dx="0.5" dy="0.5"/>
<feGaussianBlur stdDeviation="0.5"/>
<feComposite in2="hardAlpha" operator="arithmetic" k2="-1" k3="1"/>
<feColorMatrix type="matrix" values="0 0 0 0 0 0 0 0 0 0 0 0 0 0 0 0 0 0 0.75 0"/>
<feBlend mode="normal" in2="shape" result="effect2_innerShadow_48_23"/>
</filter>
</defs>
</svg>
