<svg width="32" height="32" viewBox="0 0 32 32" fill="none" xmlns="http://www.w3.org/2000/svg">
<rect x="0.5" y="0.5" width="31" height="31" rx="7.5" stroke="#B96969"/>
<path d="M11.7149 6.27661H20.1149C23.3149 6.27661 25.9149 8.87661 25.9149 12.0766V20.4766C25.9149 22.0149 25.3038 23.4901 24.2161 24.5778C23.1284 25.6655 21.6532 26.2766 20.1149 26.2766H11.7149C8.51492 26.2766 5.91492 23.6766 5.91492 20.4766V12.0766C5.91492 10.5384 6.52599 9.0631 7.6137 7.97539C8.70141 6.88768 10.1767 6.27661 11.7149 6.27661ZM11.5149 8.27661C10.5601 8.27661 9.64446 8.6559 8.96933 9.33103C8.2942 10.0062 7.91492 10.9218 7.91492 11.8766V20.6766C7.91492 22.6666 9.52492 24.2766 11.5149 24.2766H20.3149C21.2697 24.2766 22.1854 23.8973 22.8605 23.2222C23.5356 22.5471 23.9149 21.6314 23.9149 20.6766V11.8766C23.9149 9.88661 22.3049 8.27661 20.3149 8.27661H11.5149ZM21.1649 9.77661C21.4964 9.77661 21.8144 9.90831 22.0488 10.1427C22.2832 10.3771 22.4149 10.6951 22.4149 11.0266C22.4149 11.3581 22.2832 11.6761 22.0488 11.9105C21.8144 12.1449 21.4964 12.2766 21.1649 12.2766C20.8334 12.2766 20.5155 12.1449 20.281 11.9105C20.0466 11.6761 19.9149 11.3581 19.9149 11.0266C19.9149 10.6951 20.0466 10.3771 20.281 10.1427C20.5155 9.90831 20.8334 9.77661 21.1649 9.77661ZM15.9149 11.2766C17.241 11.2766 18.5128 11.8034 19.4505 12.7411C20.3881 13.6788 20.9149 14.9505 20.9149 16.2766C20.9149 17.6027 20.3881 18.8745 19.4505 19.8121C18.5128 20.7498 17.241 21.2766 15.9149 21.2766C14.5888 21.2766 13.3171 20.7498 12.3794 19.8121C11.4417 18.8745 10.9149 17.6027 10.9149 16.2766C10.9149 14.9505 11.4417 13.6788 12.3794 12.7411C13.3171 11.8034 14.5888 11.2766 15.9149 11.2766ZM15.9149 13.2766C15.1193 13.2766 14.3562 13.5927 13.7936 14.1553C13.231 14.7179 12.9149 15.481 12.9149 16.2766C12.9149 17.0723 13.231 17.8353 13.7936 18.3979C14.3562 18.9605 15.1193 19.2766 15.9149 19.2766C16.7106 19.2766 17.4736 18.9605 18.0362 18.3979C18.5988 17.8353 18.9149 17.0723 18.9149 16.2766C18.9149 15.481 18.5988 14.7179 18.0362 14.1553C17.4736 13.5927 16.7106 13.2766 15.9149 13.2766Z" fill="#B96969"/>
</svg>
