<svg width="32" height="32" viewBox="0 0 32 32" fill="none" xmlns="http://www.w3.org/2000/svg">
<rect x="0.5" y="0.5" width="31" height="31" rx="7.5" stroke="#B96969"/>
<path d="M17.268 6.64579C17.301 6.44445 17.4125 6.26442 17.5781 6.1452C17.7437 6.02598 17.9498 5.97731 18.1512 6.00988C18.1779 6.01501 18.2609 6.03039 18.3051 6.04065C18.3922 6.06014 18.5143 6.08988 18.6661 6.13398C18.9708 6.22322 19.3965 6.36988 19.9073 6.60271C20.929 7.07143 22.2881 7.89093 23.6996 9.30223C25.111 10.7135 25.9306 12.0725 26.3994 13.0951C26.6333 13.6049 26.7789 14.0305 26.8682 14.3351C26.9132 14.489 26.9519 14.6447 26.9841 14.8018L26.9892 14.8326C27.0233 15.0358 26.976 15.2444 26.8576 15.4131C26.7391 15.5818 26.5591 15.6971 26.3563 15.7341C26.1555 15.7667 25.9499 15.7185 25.7845 15.5998C25.6192 15.4812 25.5076 15.302 25.4741 15.1013C25.4506 14.9884 25.4225 14.8765 25.39 14.7659C25.2852 14.4137 25.155 14.0695 25.0002 13.7361C24.6002 12.8643 23.8822 11.6592 22.6123 10.3905C21.3424 9.12069 20.1381 8.40068 19.2652 8.00068C18.9321 7.84603 18.5883 7.71577 18.2363 7.61093C18.1284 7.58049 18.0196 7.55313 17.9101 7.52888C17.7088 7.49533 17.5288 7.3841 17.4087 7.21913C17.2886 7.05417 17.2381 6.84865 17.268 6.64681V6.64579Z" fill="#B96969"/>
<path fill-rule="evenodd" clip-rule="evenodd" d="M17.4998 10.1843C17.5559 9.98817 17.6876 9.82237 17.8659 9.72331C18.0442 9.62426 18.2546 9.60007 18.4507 9.65607H18.4538L18.4569 9.65812L18.4651 9.66017L18.4856 9.66632C18.501 9.67145 18.5205 9.6776 18.543 9.68684C18.6044 9.70812 18.665 9.73172 18.7246 9.75761C18.8744 9.8212 19.0785 9.92069 19.3298 10.0684C19.8324 10.3658 20.5166 10.8592 21.3218 11.6643C22.1271 12.4694 22.6205 13.1546 22.9179 13.6571C23.0667 13.9074 23.1651 14.1115 23.2298 14.2623C23.2632 14.3406 23.2933 14.4204 23.32 14.5013L23.3272 14.5218L23.3293 14.529V14.532L23.3303 14.5341C23.3849 14.7289 23.3606 14.9385 23.2626 15.1155C23.1645 15.2925 23.0007 15.4238 22.8065 15.4808C22.6124 15.5379 22.4035 15.5162 22.2253 15.4204C22.047 15.3246 21.9137 15.1624 21.8542 14.969L21.8511 14.9577C21.779 14.7791 21.6933 14.6062 21.5947 14.4408C21.3649 14.0541 20.9515 13.4705 20.2345 12.7525C19.5165 12.0346 18.9318 11.6212 18.5461 11.3925C18.3806 11.2939 18.2078 11.2082 18.0291 11.1361L18.0178 11.132C17.8243 11.0737 17.6615 10.9417 17.5645 10.7643C17.4676 10.587 17.4444 10.3786 17.4998 10.1843ZM8.80235 9.2376C10.5256 7.5145 13.4347 7.64578 14.6349 9.79556L15.3006 10.9884C16.0832 12.3925 15.7499 14.1638 14.6031 15.3249C14.5355 15.4273 14.4985 15.5468 14.4964 15.6695C14.483 15.9321 14.5764 16.5403 15.5191 17.4818C16.4607 18.4234 17.068 18.5177 17.3316 18.5044C17.4545 18.5028 17.5745 18.4661 17.6773 18.3988C18.8374 17.251 20.61 16.9177 22.0132 17.7013L23.2062 18.367C25.3562 19.567 25.4875 22.4747 23.7642 24.1978C22.842 25.1189 21.6173 25.9384 20.1761 25.9927C18.0425 26.0737 14.4974 25.523 10.9872 22.0132C7.47809 18.5034 6.92622 14.9597 7.00726 12.8253C7.06163 11.3853 7.88121 10.1586 8.80235 9.2376ZM13.2911 10.5453C12.6756 9.44478 11.0242 9.19144 9.89069 10.3258C9.09572 11.1207 8.57771 11.9976 8.54488 12.8838C8.47718 14.6633 8.91724 17.7659 12.0756 20.9249C15.2349 24.084 18.3379 24.5229 20.1176 24.4553C21.0028 24.4224 21.8819 23.9045 22.6759 23.1096C23.8103 21.9752 23.558 20.3249 22.4563 19.7106L21.2634 19.0439C20.5217 18.6306 19.4785 18.7721 18.7472 19.5034C18.6754 19.5752 18.2179 20.0019 17.4065 20.0408C16.5756 20.0819 15.5693 19.7085 14.4318 18.57C13.2921 17.4316 12.9188 16.4254 12.9598 15.5936C12.9988 14.7823 13.4265 14.3249 13.4973 14.2541C14.2297 13.5218 14.3702 12.4797 13.9568 11.7381L13.2901 10.5453H13.2911Z" fill="#B96969"/>
</svg>
