<svg width="32" height="32" viewBox="0 0 32 32" fill="none" xmlns="http://www.w3.org/2000/svg">
<rect x="0.5" y="0.5" width="31" height="31" rx="10.5" stroke="#B96969"/>
<path fill-rule="evenodd" clip-rule="evenodd" d="M7.9514 18.8253C8.0065 18.8437 8.06316 18.857 8.12067 18.8651C8.48348 19.721 8.84424 20.5777 9.20297 21.4353C9.84799 22.9785 10.4981 24.5678 10.6405 25.0248C10.8187 25.5872 11.006 25.9697 11.2111 26.2316C11.3176 26.3651 11.4394 26.4833 11.583 26.5731C11.6578 26.62 11.7379 26.6579 11.8215 26.6861C12.2319 26.8402 12.6063 26.776 12.841 26.6976C12.9787 26.6506 13.1097 26.5859 13.2308 26.5051L13.2372 26.5025L16.8612 24.2404L21.048 27.4525C21.1096 27.5 21.1763 27.5398 21.2481 27.5719C21.7508 27.7902 22.2381 27.8672 22.6971 27.8056C23.1537 27.7414 23.5166 27.5501 23.7871 27.3331C24.0978 27.0824 24.3455 26.7623 24.5104 26.3985L24.5219 26.3703L24.5258 26.36L24.5283 26.3549V26.3523L24.5296 26.351C24.5519 26.2958 24.5691 26.2386 24.5809 26.1803L28.4023 6.89106C28.4144 6.82932 28.4204 6.76654 28.4203 6.70363C28.4203 6.13875 28.2074 5.60083 27.7086 5.27603C27.2803 4.99744 26.8045 4.98461 26.5032 5.00772C26.18 5.03339 25.8799 5.11299 25.6786 5.17718C25.5659 5.21294 25.4547 5.2532 25.3452 5.29786L25.3311 5.30427L3.89789 13.7209L3.89533 13.7222C3.82281 13.7489 3.75137 13.7785 3.68118 13.8108C3.51122 13.8873 3.34818 13.9783 3.19388 14.083C2.90279 14.2819 2.23212 14.8288 2.34625 15.7326C2.43601 16.4516 2.92844 16.8945 3.22979 17.1076C3.39393 17.2244 3.55038 17.3079 3.66579 17.3631C3.71708 17.3888 3.82736 17.4324 3.87481 17.4529L3.88763 17.4568L7.9514 18.8253ZM26.0813 7.07593H26.0787C26.0677 7.08084 26.0566 7.08554 26.0454 7.09005L4.58651 15.5182C4.57547 15.5227 4.56436 15.527 4.55317 15.5311L4.54035 15.5349C4.50115 15.5504 4.46264 15.5675 4.42494 15.5863C4.46063 15.6068 4.49745 15.6252 4.53522 15.6415L8.56436 16.9998C8.63636 17.0241 8.70524 17.0568 8.76954 17.0973L22.0765 9.2982L22.0893 9.29178C22.141 9.26034 22.194 9.23121 22.2483 9.20448C22.3406 9.15698 22.4881 9.08766 22.6548 9.0363C22.7702 9.00036 23.1126 8.89894 23.4819 9.01833C23.6778 9.08015 23.8524 9.19587 23.9857 9.35228C24.1191 9.50869 24.2058 9.69948 24.236 9.90287C24.2837 10.081 24.285 10.2684 24.2398 10.4472C24.15 10.8003 23.9038 11.075 23.6781 11.2855C23.4858 11.4653 20.9916 13.8737 18.5308 16.2513L15.18 19.4865L14.5837 20.0642L22.1137 25.8439C22.2153 25.8866 22.3257 25.9042 22.4355 25.8953C22.4909 25.8877 22.5429 25.8646 22.5856 25.8285C22.6376 25.7846 22.6822 25.7326 22.7177 25.6745L22.7202 25.6732L26.4262 6.96424C26.3095 6.99235 26.195 7.02926 26.0838 7.07465L26.0813 7.07593ZM15.2313 22.9874L13.7284 21.8346L13.3642 24.1519L15.2313 22.9874ZM12.3499 19.5468L13.8438 18.1026L17.1946 14.8648L18.4423 13.6606L10.0814 18.5609L10.1263 18.6661C10.6536 19.9133 11.1751 21.1629 11.6907 22.4149L12.0536 20.104C12.0865 19.8897 12.1909 19.6941 12.3499 19.5468Z" fill="#B96969"/>
</svg>
