<svg width="32" height="32" viewBox="0 0 32 32" fill="none" xmlns="http://www.w3.org/2000/svg">
<path d="M28 17.4584C28 18.6131 27.6868 19.4325 27.18 20.0484C26.6599 20.6804 25.866 21.1823 24.7679 21.562C22.5356 22.334 19.3642 22.5 15.6666 22.5C11.9691 22.5 8.79771 22.334 6.56539 21.562C5.46725 21.1823 4.67338 20.6804 4.15328 20.0484C3.64647 19.4325 3.33331 18.6131 3.33331 17.4584C3.33331 15.1489 4.60586 12.9743 6.83047 11.3406C9.05454 9.7073 12.1753 8.66669 15.6666 8.66669C19.158 8.66669 22.2788 9.7073 24.5028 11.3406C26.7274 12.9743 28 15.1489 28 17.4584Z" stroke="#B96969" stroke-width="2"/>
<path d="M20.6667 16.5318C20.6667 18.6665 18.3348 18.9167 15.4583 18.9167C12.5819 18.9167 10.25 18.6665 10.25 16.5318C10.25 14.3972 12.5819 12.6667 15.4583 12.6667C18.3348 12.6667 20.6667 14.3972 20.6667 16.5318Z" fill="#B96969"/>
<rect x="0.5" y="0.5" width="31" height="31" rx="10.5" stroke="#B96969"/>
</svg>
