<svg width="32" height="32" viewBox="0 0 32 32" fill="none" xmlns="http://www.w3.org/2000/svg">
<rect x="0.5" y="0.5" width="31" height="31" rx="7.5" stroke="#B96969"/>
<path d="M15.9067 5.91309C14.3928 5.91309 10.6478 6.07245 8.65575 7.9848C7.22149 9.33938 6.66372 11.4111 6.58404 13.8812C6.42468 17.7856 7.30117 20.2557 8.73543 21.5306C9.05416 21.7697 9.85097 22.4071 11.3649 22.8852V24.8772C11.3649 24.8772 11.3649 25.674 11.843 25.8334C11.9227 25.8334 12.0024 25.9131 12.082 25.9131C12.5601 25.9131 12.9585 25.3553 13.5163 24.7975C13.9944 24.2398 14.3928 23.8414 14.6318 23.443H16.3848C17.8988 23.443 21.6438 23.2836 23.6358 21.3713C25.0701 19.937 25.6279 17.8653 25.6279 15.2358C25.7075 14.8374 25.7075 14.3593 25.7075 13.8812C25.6279 10.933 24.7514 8.94097 23.5561 7.82544C23.0781 7.42703 21.0063 5.91309 16.5442 5.91309H15.9067ZM15.7474 7.42703H16.4645C20.6876 7.42703 22.2812 8.78161 22.4406 8.94097C23.3968 9.73779 23.9546 11.4908 24.0342 13.8015V14.1203C24.1139 14.5983 24.1139 14.9968 24.1139 15.2358C24.0342 17.6262 23.5561 19.2199 22.6 20.2557C20.9267 21.7697 17.4207 21.8493 16.4645 21.8493H14.9506L13.6757 23.2836L12.8789 24.1601L12.7195 24.3991C12.5601 24.5585 12.3211 24.8772 12.1617 24.9569V21.3713C10.5681 20.9728 9.93065 20.4151 9.77129 20.2557C8.65575 19.2995 8.0183 16.9888 8.17767 13.8812V13.0844C8.33703 11.172 8.81512 9.89715 9.61193 9.02066C11.2852 7.50671 14.7912 7.42703 15.7474 7.42703ZM15.6677 9.18002C15.2693 9.18002 15.2693 9.73779 15.6677 9.73779C18.6159 9.73779 21.1657 11.7298 21.1657 15.4748C21.1657 15.8732 21.7235 15.8732 21.7235 15.4748C21.7235 11.4111 19.0143 9.10034 15.6677 9.18002ZM12.5099 9.91707C12.3294 9.89543 12.1475 9.94519 12.0032 10.0557C11.2063 10.4541 10.4087 11.2525 10.6478 12.129C10.6478 12.129 10.8071 12.8454 11.6836 14.3593C12.1617 15.0764 12.5601 15.7139 12.9585 16.192C13.3569 16.7497 13.9944 17.3872 14.6318 17.8653C15.9067 18.9011 17.8988 19.937 18.7753 20.176C19.5721 20.4151 20.4486 19.6183 20.847 18.8215C21.0063 18.5027 20.9267 18.1043 20.6079 17.8653C20.1299 17.3872 19.333 16.8294 18.7753 16.5107C18.3769 16.2717 17.8988 16.431 17.7394 16.6701L17.341 17.1481C17.1816 17.3872 16.7832 17.3872 16.7832 17.3872C14.1538 16.6701 13.4366 13.9609 13.4366 13.9609C13.4366 13.9609 13.4366 13.6422 13.6757 13.4031L14.1538 13.0047C14.3928 12.8454 14.5522 12.3673 14.3131 11.9689C14.1538 11.7298 13.9147 11.2517 13.6757 11.0127C13.4366 10.694 12.9585 10.1362 12.9585 10.1362C12.8376 10.0151 12.6797 9.938 12.5099 9.91707ZM16.2255 10.7736C15.8271 10.694 15.7474 11.3314 16.1458 11.3314C18.3769 11.4908 19.6518 13.0047 19.5721 14.9171C19.4924 15.3155 20.1299 15.3155 20.1299 14.9171C20.2095 12.686 18.7753 10.8533 16.2255 10.7736ZM16.4645 12.2876C16.0661 12.2079 16.0661 12.8454 16.4645 12.8454C17.4207 12.8454 17.8988 13.4031 17.8988 14.3593C17.9785 14.7577 18.5362 14.7577 18.5362 14.3593C18.4565 13.0844 17.7394 12.2876 16.4645 12.2876Z" fill="#B96969"/>
</svg>
