<svg width="100" height="100" viewBox="0 0 100 100" fill="none" xmlns="http://www.w3.org/2000/svg">
<g clip-path="url(#clip0_601_82)">
<path fill-rule="evenodd" clip-rule="evenodd" d="M72.7498 60.2749C72.4458 62.4235 71.326 64.3342 69.694 65.6551C72.179 64.6248 74.0386 62.4519 74.6706 59.8343C74.3015 59.9843 73.9067 60.1015 73.4918 60.1799C73.2424 60.227 72.9945 60.2584 72.7498 60.2749Z" fill="#DC1F70"/>
<path fill-rule="evenodd" clip-rule="evenodd" d="M76.0752 64.7546C74.1216 64.1618 72.0194 64.4017 70.1976 65.342C72.1392 63.5142 74.7817 62.7121 77.2741 63.1979C76.9884 63.4708 76.7193 63.7799 76.4746 64.1228C76.3274 64.3292 76.1943 64.5403 76.0752 64.7546Z" fill="#DC1F70"/>
<path fill-rule="evenodd" clip-rule="evenodd" d="M72.701 60.246C72.6903 60.4443 72.6728 60.6408 72.6489 60.8353C73.4463 61.3407 74.1721 61.9894 74.7861 62.7766C76.5558 65.0448 76.9851 67.9329 76.1918 70.4868C78.1594 67.5393 78.1226 63.5463 75.8233 60.5993C75.531 60.2246 75.2133 59.8812 74.8747 59.5697C74.354 59.8492 73.7667 60.06 73.1323 60.1799C72.9879 60.2071 72.844 60.2292 72.701 60.246Z" fill="#DC1F70"/>
<path fill-rule="evenodd" clip-rule="evenodd" d="M70.5609 59.4523C70.2795 59.6246 69.9493 59.7597 69.5862 59.8405C69.301 59.904 69.0199 59.9286 68.7535 59.9183C68.5044 61.2607 67.9325 62.3703 67.0266 63.0977C66.1861 63.7727 65.1519 64.0431 64.0238 63.9556C64.0054 64.1496 63.9829 64.3415 63.9564 64.5311C65.7454 65.1751 67.4351 65.0701 68.6917 64.0609C69.9026 63.0887 70.5167 61.4335 70.5609 59.4523Z" fill="#DC1F70"/>
<path fill-rule="evenodd" clip-rule="evenodd" d="M70.5188 70.4391C69.8258 70.2753 69.1077 70.2221 68.3906 70.2767C68.1635 68.8569 67.6782 67.6696 66.9191 66.825C66.0708 65.8814 64.973 65.468 63.7338 65.5276C63.7313 65.2447 63.7232 64.9647 63.7099 64.688C65.7641 63.8825 67.6219 64.0954 68.9067 65.5248C69.9139 66.6454 70.4392 68.3691 70.5188 70.4391Z" fill="#DC1F70"/>
<path fill-rule="evenodd" clip-rule="evenodd" d="M59.4921 56.1156C61.7305 57.8299 63.2669 60.2193 63.6208 62.9528C63.9988 65.8734 62.9558 68.6369 60.9615 70.75C64.1082 68.5585 65.9238 65.0999 65.4432 61.3874C65.0813 58.5913 63.4819 56.1552 61.1596 54.4335C60.6645 55.0232 60.1065 55.5856 59.4921 56.1156Z" fill="#DC1F70"/>
<path fill-rule="evenodd" clip-rule="evenodd" d="M56.6341 70.5542C58.4995 70.8336 60.3813 68.5927 60.8371 65.549C61.2929 62.5052 60.1501 59.8115 58.2846 59.5321C56.419 59.2527 54.5374 61.4936 54.0816 64.5373C53.6258 67.5811 54.7685 70.275 56.6341 70.5542ZM57.8617 67.0972C58.7453 67.2295 59.688 65.8245 59.9674 63.959C60.2468 62.0935 59.7569 60.474 58.8733 60.3416C57.9896 60.2093 57.0468 61.6143 56.7674 63.4798C56.488 65.3453 56.9779 66.9648 57.8617 67.0972Z" fill="#DC1F70"/>
<path fill-rule="evenodd" clip-rule="evenodd" d="M56.5119 58.0745C55.6536 58.7076 54.7872 59.1967 53.9883 59.5194C54.2401 61.1574 54.2811 62.8651 54.0837 64.6048C53.2031 72.3626 47.845 78.4362 41.1442 80.1297C49.0445 79.164 55.6368 72.4163 56.6413 63.5664C56.8548 61.6852 56.801 59.8401 56.5119 58.0745Z" fill="#DC1F70"/>
<path fill-rule="evenodd" clip-rule="evenodd" d="M48.0999 59.6315C49.2609 60.5078 50.0402 62.6894 49.9641 65.2166C49.8879 67.7513 48.9737 69.8872 47.7567 70.6867C49.3155 70.5779 50.9639 68.4437 51.6033 65.5691C52.1578 63.0768 51.7894 60.767 50.7916 59.7018C50.4011 59.8001 49.9923 59.8524 49.5713 59.8524C49.0591 59.8524 48.565 59.7751 48.0999 59.6315Z" fill="#DC1F70"/>
<path d="M49.3868 58.7455C49.9981 58.7455 50.4936 58.25 50.4936 57.6387C50.4936 57.0274 49.9981 56.5319 49.3868 56.5319C48.7755 56.5319 48.28 57.0274 48.28 57.6387C48.28 58.25 48.7755 58.7455 49.3868 58.7455Z" fill="#DC1F70"/>
<path d="M34.2454 55.2757H39.2788H42.5144L44.8513 54.9161L47.0083 54.3768L48.4464 54.0173L49.8845 53.478L51.3226 52.9388L52.581 52.2198L52.2214 53.1186L51.6821 53.6578L50.0642 54.5567L48.0869 55.4554L45.7501 56.1745L42.5144 56.7137L39.2788 57.0733L36.2228 56.7137L34.2454 55.2757Z" fill="#DC1F70"/>
<path fill-rule="evenodd" clip-rule="evenodd" d="M45.1657 60.7944C45.2684 60.8293 45.3441 60.8482 45.3906 60.8482C47.7275 60.8482 44.5934 58.0628 40.116 57.2621C39.2327 57.1043 38.3021 56.6674 37.401 56.2443C35.6142 55.4054 33.9431 54.6209 32.9872 56.1745C33.0359 56.2719 33.0714 56.363 33.105 56.4488C33.2891 56.9211 33.4126 57.2372 35.3366 57.6092C36.9222 57.2872 38.7746 57.3867 40.6335 57.9879C42.4971 58.5906 44.0634 59.5993 45.1657 60.7944Z" fill="#DC1F70"/>
<path fill-rule="evenodd" clip-rule="evenodd" d="M44.4917 70.5552C46.378 70.5552 47.9072 68.0603 47.9072 64.9827C47.9072 61.905 46.378 59.4101 44.4917 59.4101C42.6055 59.4101 41.0763 61.905 41.0763 64.9827C41.0763 68.0603 42.6055 70.5552 44.4917 70.5552ZM45.2108 67.679C46.1043 67.679 46.8287 66.1499 46.8287 64.2636C46.8287 62.3773 46.1043 60.8482 45.2108 60.8482C44.3173 60.8482 43.5929 62.3773 43.5929 64.2636C43.5929 66.1499 44.3173 67.679 45.2108 67.679Z" fill="#DC1F70"/>
<path fill-rule="evenodd" clip-rule="evenodd" d="M37.0686 60.7103C34.8678 61.9885 34.0813 64.3532 34.9396 66.6857C34.8983 64.7795 35.9677 63.0468 38.013 62.1424C38.4254 61.9601 38.8581 61.8199 39.3042 61.7203C39.4105 61.3946 39.5345 61.0778 39.6746 60.7708C39.4114 60.6034 39.1682 60.4242 38.9468 60.2364C38.3425 60.4474 37.7148 60.607 37.0686 60.7103Z" fill="#DC1F70"/>
<path fill-rule="evenodd" clip-rule="evenodd" d="M31.828 60.2798C31.5695 60.385 31.2956 60.4755 31.0087 60.549C30.9651 60.5601 30.9216 60.5707 30.8782 60.5809C30.9034 60.7816 30.9194 60.985 30.9259 61.191C31.5453 61.4752 32.1218 61.8414 32.6324 62.2892C34.3347 63.7824 34.9094 65.8359 34.3934 67.7497C35.8914 65.4776 35.6055 62.6291 33.4578 60.6901C32.8993 60.5944 32.355 60.4565 31.828 60.2798Z" fill="#DC1F70"/>
<path fill-rule="evenodd" clip-rule="evenodd" d="M37.1088 60.7038C37.0883 60.7854 37.069 60.8674 37.0507 60.9501C36.1858 64.8567 37.9634 68.7822 41.1863 70.7938C39.2669 68.6459 38.3672 65.6277 39.0328 62.6209C39.2637 61.5774 39.6646 60.62 40.1991 59.7709C40.1895 59.7553 40.18 59.7398 40.1705 59.7242C39.2176 60.1926 38.1891 60.527 37.1088 60.7038Z" fill="#DC1F70"/>
<path fill-rule="evenodd" clip-rule="evenodd" d="M30.805 59.8785C30.9392 60.8686 30.9293 61.8984 30.7564 62.9422C30.1824 66.4101 27.9455 69.2239 24.9989 70.6824C29.2683 69.9228 32.8208 66.5214 33.5665 62.0159C33.6254 61.6601 33.6654 61.3059 33.6872 60.9543C33.6132 60.8645 33.5371 60.7764 33.4589 60.6904C32.5302 60.5313 31.6405 60.2557 30.805 59.8785Z" fill="#DC1F70"/>
<path fill-rule="evenodd" clip-rule="evenodd" d="M21.8134 70.4917C27.3063 68.484 29.2431 62.8396 29.0922 56.5494C29.0405 54.3919 29.5538 52.3459 29.9531 50.7545C30.3786 49.0586 30.6746 47.8789 30.0194 47.6303C28.8688 48.893 27.3797 49.8054 25.7076 50.202C25.6039 50.9107 25.7099 51.893 25.866 53.3421C25.9563 54.1784 26.0631 55.17 26.1563 56.3542C26.2483 57.5267 26.3105 58.4676 26.2923 59.2973C26.6544 63.6525 24.8894 67.7549 21.8134 70.4917Z" fill="#DC1F70"/>
<path d="M52.6892 40.6938L52.7365 40.4575H52.9255L52.8782 40.6938L52.831 40.9301L52.6892 41.4028L52.5946 41.8754L52.5474 42.2858L52.5238 42.6579V43.0571L52.5474 43.5298L52.571 43.8427L52.642 44.2388L52.6892 44.4752L52.8782 44.9479L53.0437 45.2626L53.1382 45.4205L53.2328 45.5858L53.4218 45.7947L53.54 45.8697L53.4455 45.5662L53.4218 45.2626V44.9479L53.4691 44.4752L53.54 44.0026L53.6054 43.6925L53.6818 43.2935L53.7763 42.9353L53.8709 42.5845L53.989 42.1649L54.1072 41.8754L54.3436 41.4028L54.5798 40.9301L54.8162 40.4575H55.0525L54.8162 40.9301L54.5798 41.4028L54.3436 41.8754L54.1544 42.3482L53.989 42.8209L53.8709 43.2935L53.7763 43.7662L53.6818 44.2388L53.6156 44.7115L53.6054 44.9173V45.2347L53.6345 45.6569L53.729 45.8931L53.8709 46.1295L54.1544 46.4316V46.3858V46.1295V45.8931L54.1781 45.6569L54.2824 45.2347L54.3436 44.9479L54.4853 44.5332L54.6745 44.0026L54.8635 43.5298L55.0525 43.0571L55.3126 42.5845L55.4306 42.3482L55.7143 41.8754L55.9979 41.4028L56.2342 40.9301L56.4706 40.4575H56.7542L56.5178 40.9301L56.2342 41.4028L55.8088 42.1118L55.5253 42.5845L55.2889 43.0571L55.0525 43.5298L54.8635 44.0026L54.6271 44.7115L54.4853 45.1842L54.3436 45.6569L54.2824 46.035V46.2509V46.4604L54.3436 46.6022L54.4508 46.6967L54.6322 46.7913H54.7217L54.8162 46.6967L54.9107 46.6022L55.1359 46.4109L55.3055 46.2509L55.667 45.8931L55.9034 45.6569L56.0924 45.4205L56.2815 45.1842L56.4706 44.9479L56.6596 44.7115L56.9432 44.3859L57.2268 44.0026L57.4159 43.7662L57.5719 43.5298L57.7467 43.2935L58.0115 42.921L58.2431 42.5845L58.4085 42.3482L58.503 42.1935L58.692 41.8754L58.8339 41.6392L58.8812 41.526L59.0702 41.1665L59.2593 40.6938L59.4248 40.2211H59.6375L59.543 40.4575L59.2356 41.1665L58.8812 41.8754L58.4558 42.5845L58.0021 43.2935L57.6522 43.7662L57.2741 44.2388L56.896 44.7115L56.7069 44.9479L56.5415 45.1842L56.1634 45.6569L55.9507 45.8931L55.7143 46.1295L55.478 46.3658L55.1944 46.6022L54.9107 46.8386L55.1359 46.9614H55.3055L55.7615 46.8386L56.1166 46.6967L56.2342 46.6022L56.4706 46.4604L56.9432 46.1295L57.2741 45.8931L57.5728 45.6096L57.8586 45.3496L58.2194 44.9479L58.4085 44.7115L58.5975 44.4752L58.9284 44.0026L59.2121 43.5921L59.543 43.0571L59.8265 42.5845L60.0629 42.1118L60.2991 41.6392L60.4883 41.1665L60.5592 40.9301L60.7245 40.4575L60.8192 39.9848H61.0082L60.9609 40.2211L60.8192 40.6938L60.6773 41.1665L60.4883 41.6392L60.2519 42.1118L60.0156 42.5845L59.732 43.0571L59.4483 43.5298L59.1648 44.0026L58.8339 44.4752L58.4889 44.9479L58.1249 45.3496L57.8885 45.6096L57.4159 46.035L56.9432 46.3658L56.4706 46.6967L56.2342 46.8386L55.9979 46.9614L55.5253 47.0748H55.2889L55.7875 47.2056L56.1166 47.2167H56.4706L56.8015 47.2056L57.0741 47.1693L57.4159 47.0748L57.6522 46.9803L58.1249 46.8386L58.5975 46.6022L59.0088 46.3658L59.3066 46.1295L59.543 45.8931L59.7792 45.6569L60.0156 45.4205L60.2519 45.1842L60.4883 44.8533L60.7245 44.5225L60.9137 44.2388L61.1973 43.7662L61.4336 43.2935L61.6916 42.7121L61.9062 42.1118L62.1426 41.4028L62.2654 40.9301L62.379 40.4102L62.4662 39.7957H62.7334L62.6152 40.4102L62.379 41.3555L62.1426 42.1118L61.9062 42.7121L61.6699 43.199L61.4336 43.6717L61.1973 44.1206L60.9609 44.4988L60.7245 44.8533L60.4883 45.1369L60.2519 45.4205L60.0156 45.6569L59.7792 45.9404L59.543 46.1768L59.3066 46.3658L59.0088 46.6022L58.5975 46.8386L58.1249 47.0276L57.6522 47.1693L57.1796 47.3112L56.8015 47.382L56.2342 47.4057L55.5253 47.3585L55.1707 47.3112L54.5798 47.0748L54.2017 46.8386L53.7055 46.3658L53.2328 45.8931L53.0437 45.6569L52.7837 45.1842L52.571 44.7115L52.4529 44.2388L52.3583 43.7582L52.3111 43.2935V42.9969V42.5845L52.3583 42.1118L52.4056 41.8754L52.4529 41.6392L52.5663 41.1665L52.6892 40.6938Z" fill="#DC1F70" stroke="#DC1F70" stroke-width="0.02442"/>
<path d="M64.506 31.2404L64.6951 30.7205L64.8841 30.7678L64.6951 31.3377L64.506 31.9495L64.2697 32.6585L64.0333 33.3675L63.7497 34.3128L63.6079 34.9795L63.5134 35.4945L63.4188 36.2035L63.3243 36.9125L63.1825 37.6775L63.088 38.3305L62.9669 38.9449H62.7571L62.7807 38.8032L62.8281 38.5668L62.8753 38.3305L62.9131 38.0941L62.9698 37.6215L63.0171 37.3851L63.1116 36.9125L63.1825 36.4398L63.2535 35.9672L63.3243 35.4945L63.3952 35.0219L63.4897 34.5491L63.6079 34.0764L63.7969 33.3675L64.0333 32.6585L64.2697 31.9495L64.506 31.2404Z" fill="#DC1F70" stroke="#DC1F70" stroke-width="0.02442"/>
<path d="M63.3243 30.3422L63.4897 30.0587L63.6552 30.1532L63.5605 30.295L63.466 30.4469L63.277 30.7204L63.0879 31.004L62.8183 31.4294L62.6152 31.7131L62.4262 32.0361L62.0008 32.6583L61.4336 33.4619L61.1973 33.84L60.9609 34.1709L60.7245 34.5491L60.441 34.9272L60.0156 35.4944L59.543 36.2034L59.0702 36.9124L58.5975 37.6214L58.1249 38.3304L57.3213 39.5121H57.1796H57.085L57.1796 39.3703L57.4159 39.0394L57.6522 38.6613L58.1249 37.9995L58.5975 37.2906L58.8339 36.9124L59.0702 36.5815L59.543 35.8725L60.0156 35.1872L60.7245 34.1709L61.4336 33.131L61.9062 32.4221L62.4262 31.7131L62.6152 31.4294L63.0879 30.7204L63.3243 30.3422Z" fill="#DC1F70" stroke="#DC1F70" stroke-width="0.02442"/>
<path d="M62.1426 30.6733L62.6153 30.106L62.8517 29.8225L63.0407 29.5861L63.0879 29.7278V29.8225L62.9462 30.0115L62.6153 30.4369L62.3789 30.7205L62.1426 31.0042L61.9063 31.2404L61.67 31.4768L61.1027 32.0119L60.4883 32.5166L60.0157 32.8948L59.4011 33.5093L58.834 33.9819L58.1249 34.5491L57.6523 35.0217L57.4159 35.2581L56.9432 35.7308L56.4706 36.1562L55.9979 36.6762L55.5253 37.1488L55.2889 37.3851L55.0525 37.6215L54.8163 37.8578L54.5799 38.0941L54.2017 38.5668L53.8708 39.0394L53.6346 39.5122L53.3982 39.4648L53.6346 39.0394L53.8708 38.5668L54.1072 38.2359L54.3436 37.9051L54.5799 37.6215L54.8163 37.3851L55.0525 37.1488L55.2889 36.9125L55.5253 36.6288L55.7616 36.3926L55.9979 36.1562L56.2342 35.9199L56.4706 35.7308L56.7069 35.4945L56.9432 35.2581L57.1796 35.0217L57.4159 34.8327L57.8885 34.4073L58.2667 34.0764L58.834 33.6038L59.4011 33.1311L59.6848 32.8948L59.9683 32.6585L60.2519 32.4221L60.5356 32.1857L61.1027 31.7131L61.67 31.1932L62.1426 30.6733Z" fill="#DC1F70" stroke="#DC1F70" stroke-width="0.02442"/>
<path d="M63.7781 30.7678L63.9861 30.2951L64.1278 30.3896L64.0664 30.5314L63.8679 31.0041L63.4425 31.9494L62.9226 33.1311L62.4972 34.0764L61.9773 35.2581C61.8962 35.4989 61.6646 35.9779 61.67 35.9671L61.4337 36.4398L61.1501 37.1488L60.6963 38.0941L60.4883 38.5668L60.2433 39.1813H59.9967L60.0629 39.0394L60.2756 38.5668L60.4883 38.0941L60.8192 37.3851L61.2446 36.4398L61.67 35.4945L61.9725 34.7855L62.19 34.3128L62.5917 33.3674L62.8044 32.8947L63.1353 32.1857L63.3528 31.7131L63.5607 31.2404L63.7781 30.7678Z" fill="#DC1F70"/>
<path d="M62.5917 33.3674L62.8044 32.8947L63.1353 32.1857L63.3528 31.7131L63.5607 31.2404L63.7781 30.7678L63.9861 30.2951L64.1278 30.3896L64.0664 30.5314L63.8679 31.0041L63.4425 31.9494L62.9226 33.1311L62.4972 34.0764L61.9773 35.2581C61.8962 35.4989 61.6646 35.9779 61.67 35.9671L61.4337 36.4398L61.1501 37.1488L60.6963 38.0941L60.4883 38.5668L60.2433 39.1813H59.9967L60.0629 39.0394L60.2756 38.5668L60.4883 38.0941L60.8192 37.3851L61.2446 36.4398L61.67 35.4945L61.9725 34.7855L62.19 34.3128M62.5917 33.3674L62.3932 33.8402L62.19 34.3128M62.5917 33.3674L62.19 34.3128" stroke="#DC1F70" stroke-width="0.02442"/>
<path d="M63.0879 30.1534L63.2771 29.8697L63.4188 29.9642L63.2061 30.2951L63.0407 30.5314L62.8515 30.7678L62.6153 31.0987L62.3316 31.4768L62.1899 31.7131L61.9062 32.0912L61.67 32.3748L61.4336 32.6585L61.0555 33.1311L60.79 33.4148L60.5672 33.651L60.2519 33.9347L59.8975 34.3128L59.6848 34.5491L59.345 34.8941L59.0702 35.2109L58.834 35.4473L58.5976 35.7214L58.3612 35.9672L58.1249 36.2034L57.8885 36.4871L57.6523 36.7707L57.4159 37.0779L57.1795 37.3851L56.9675 37.6687L56.825 37.8579L56.6596 38.0941L56.4706 38.3305L56.3051 38.5668L56.116 38.8032L55.927 39.0394L55.7616 39.2758L55.6671 39.5122H55.4307L55.5252 39.2758L55.7616 38.9214L55.9979 38.614L56.2342 38.2833L56.4706 37.9524L56.7069 37.6687L56.9432 37.3851L57.1795 37.0543L57.4159 36.7707L57.6523 36.4777L57.8885 36.2034L58.1249 35.9672L58.3612 35.6835L58.5976 35.4236L58.834 35.1636L59.0702 34.8941L59.5429 34.4073L60.0155 33.8874L60.2519 33.651L60.4883 33.4148L60.7246 33.1784L60.9609 32.942L61.1972 32.6585L61.4336 32.3276L61.67 32.044L61.9062 31.7131L62.1426 31.3823L62.2371 31.2404L62.3789 31.0703L62.6153 30.7678L62.8515 30.4841L63.0879 30.1534Z" fill="#DC1F70" stroke="#DC1F70" stroke-width="0.02442"/>
<path d="M64.0806 31.004L64.2696 30.4841L64.4587 30.5788L64.2696 31.004L64.1751 31.2404L63.9861 31.7131L63.7969 32.1857L63.6079 32.6584L63.3243 33.3674L63.088 34.0764L62.8516 34.7855L62.6625 35.4944L62.5207 35.9672L62.3317 36.6761L62.0953 37.3851L61.9536 37.8578L61.6699 38.5668L61.5539 38.8977H61.3391L61.6699 38.0941L61.9063 37.3851L62.1426 36.6761L62.4025 35.7308L62.6152 35.0217L62.8516 34.3128L63.088 33.6038L63.3243 32.8948L63.589 32.1857L63.8679 31.4768L64.0806 31.004Z" fill="#DC1F70" stroke="#DC1F70" stroke-width="0.02442"/>
<g filter="url(#filter0_d_601_82)">
<path d="M69.7034 18.886C69.7774 18.7575 69.9417 18.7133 70.0702 18.7873L70.84 19.2309C70.9686 19.305 71.0127 19.4692 70.9387 19.5977L70.5721 20.2339L69.3369 19.5222L69.7034 18.886Z" fill="#F4D7CA"/>
<mask id="mask0_601_82" style="mask-type:luminance" maskUnits="userSpaceOnUse" x="68" y="18" width="4" height="3">
<path d="M69.7034 18.886C69.7774 18.7575 69.9417 18.7133 70.0702 18.7873L70.84 19.2309C70.9686 19.305 71.0127 19.4692 70.9387 19.5977L70.5721 20.2339L69.3369 19.5222L69.7034 18.886Z" stroke="#DC1F70" stroke-width="0.610501"/>
</mask>
<g mask="url(#mask0_601_82)">
<path d="M69.7034 18.886C69.7774 18.7575 69.9417 18.7133 70.0702 18.7873L70.84 19.2309C70.9686 19.305 71.0127 19.4692 70.9387 19.5977L70.5721 20.2339L69.3369 19.5222L69.7034 18.886Z" stroke="#DC1F70" stroke-width="0.610501"/>
</g>
</g>
<g filter="url(#filter1_d_601_82)">
<path d="M70.7896 20.1704L69.1718 19.2383C68.9965 19.1373 68.7726 19.1975 68.6716 19.3728L62.9872 29.2385C62.8862 29.4138 62.9464 29.6378 63.1217 29.7388L64.7394 30.6709C64.9147 30.7719 65.1387 30.7117 65.2397 30.5364L70.9241 20.6707C71.0251 20.4954 70.9649 20.2714 70.7896 20.1704Z" fill="#DC1F70"/>
<path d="M70.7958 20.1598L69.178 19.2277C68.9969 19.1233 68.7654 19.1855 68.6611 19.3667L62.9767 29.2324C62.8723 29.4135 62.9345 29.6449 63.1157 29.7493L64.7334 30.6814C64.9145 30.7858 65.146 30.7236 65.2504 30.5424L70.9348 20.6767C71.0391 20.4956 70.9769 20.2641 70.7958 20.1598Z" stroke="#F4D7CA" stroke-width="0.02442"/>
</g>
<path d="M53.2564 34.5656H53.9654L53.9284 34.6602L53.8841 34.7547H53.2564H52.7837L52.311 34.802H51.8383L51.2475 34.8492L50.7182 34.8965L50.184 34.9437L49.6597 34.991L49.2387 35.0384L48.766 35.0856L48.2934 35.1801L47.5843 35.3691L46.8753 35.511L46.1663 35.7473L45.4574 35.9837L44.9846 36.2199L44.5119 36.4563L43.9448 36.7399L43.5666 37.0708L43.3303 37.4016V37.638V37.8744L43.5666 38.1106L43.6611 38.1918L43.9448 38.4357L44.3348 38.6305L44.7483 38.8197L45.221 39.0559L45.93 39.2923L46.6389 39.5287L47.5843 39.765L48.5666 39.9069L49.4749 40.0959L50.4204 40.2376L51.6316 40.3322L52.311 40.3795H52.9905H53.5517H54.1278H54.8369H55.28H55.856H56.3287L57.2741 40.3322L58.2194 40.2849L58.9284 40.2376L59.8737 40.0959L60.5828 40.0014L61.2918 39.9069L62.4735 39.6705L63.1824 39.5287L63.8914 39.3868L64.8367 39.1506L65.5458 38.8197L65.9002 38.536L66.2548 38.2051L66.4911 37.8744L66.6802 37.638L66.7747 37.4016H67.2001V37.638V38.347L67.1056 39.2923L66.9638 40.2376L66.7274 41.183L66.4911 41.892L66.2075 42.601L66.0184 43.0736L65.7821 43.5464L65.3095 44.2553L64.7422 44.9644L64.3641 45.437L63.8914 45.9097L63.4188 46.3824L62.9461 46.8551L62.4735 47.2805L61.7644 47.8004L61.0554 48.1785L60.3464 48.5094L59.6375 48.7929L58.692 49.1238L57.8206 49.313L57.2741 49.4547L56.698 49.5492L55.9594 49.5965H54.8222H54.2017L53.4926 49.5492L53.02 49.502L52.5473 49.4075L51.8383 49.2185L51.1294 48.9821L50.4204 48.7457L49.7113 48.4622L49.2387 48.2258L48.766 47.9421L48.5296 47.8004L48.057 47.5167L47.8206 47.3277L47.5843 47.0913L47.1117 46.6659L46.6874 46.2878L46.2498 45.8152L45.93 45.437L45.5046 44.9644L45.0778 44.3972L44.7956 44.0191L44.5119 43.5464L44.2757 43.0736L44.1338 42.7537L43.9448 42.3647L43.7557 41.892L43.6139 41.4193L43.5525 41.183L43.5666 40.9467H43.6611L43.9448 41.6557L44.1338 42.1756L44.5119 42.9319L44.9846 43.7827L45.4574 44.3972L45.93 44.9644L46.6389 45.8152L47.1117 46.2878L47.8206 46.9023L48.2934 47.2805L49.2387 47.8476L50.184 48.273L51.3657 48.7457L52.5473 49.0766L53.729 49.2185L54.7277 49.313H55.856L56.8014 49.2185L57.7467 48.9821L58.692 48.7457L60.1101 48.273L61.0554 47.8004L62.0007 47.1858L62.7097 46.6187L63.1824 46.146L63.8914 45.437L64.4113 44.728L64.7422 44.2553L65.0731 43.7827L65.3095 43.31L65.7821 42.3647L66.0657 41.6557L66.302 40.9467L66.4911 40.0014L66.6329 39.0559L66.6802 38.536L66.2548 38.9142L65.7821 39.1978L65.0731 39.5287L64.1278 39.765L62.2371 40.1904L60.3464 40.5213L59.1647 40.7104L57.6283 40.8049L55.6198 40.8994L54.2017 40.8522L52.5473 40.8049L51.1294 40.7104L49.4749 40.474L46.6389 39.9069L44.9846 39.2923L43.5666 38.6305L43.094 38.347L42.8576 37.8744V37.4016L43.094 36.929L43.5666 36.4563L44.5119 35.9837L46.4027 35.2746L48.057 34.991L49.9477 34.802L51.602 34.6602L53.2564 34.5656Z" fill="#DC1F70" stroke="#DC1F70" stroke-width="0.1221"/>
<path fill-rule="evenodd" clip-rule="evenodd" d="M47.7028 25.1745C47.2331 24.9995 46.763 24.5604 46.4691 23.9653C46.0066 23.0284 46.156 22.0598 46.8029 21.8018C47.1916 21.6468 47.6714 21.7835 48.0928 22.1205C48.49 21.819 48.9387 21.7 49.3121 21.8422C49.9638 22.0905 50.139 23.0405 49.7035 23.9643C49.4572 24.4868 49.0682 24.889 48.6588 25.0949C48.6038 25.1348 48.5434 25.1681 48.478 25.1943C48.304 25.2636 48.1118 25.2746 47.9149 25.2354C47.8535 25.2256 47.7933 25.2098 47.735 25.1875C47.7242 25.1834 47.7134 25.1791 47.7028 25.1745Z" fill="#DC1F70"/>
<mask id="mask1_601_82" style="mask-type:luminance" maskUnits="userSpaceOnUse" x="46" y="21" width="4" height="5">
<path fill-rule="evenodd" clip-rule="evenodd" d="M47.7028 25.1745C47.2331 24.9995 46.763 24.5604 46.4691 23.9653C46.0066 23.0284 46.156 22.0598 46.8029 21.8018C47.1916 21.6468 47.6714 21.7835 48.0928 22.1205C48.49 21.819 48.9387 21.7 49.3121 21.8422C49.9638 22.0905 50.139 23.0405 49.7035 23.9643C49.4572 24.4868 49.0682 24.889 48.6588 25.0949C48.6038 25.1348 48.5434 25.1681 48.478 25.1943C48.304 25.2636 48.1118 25.2746 47.9149 25.2354C47.8535 25.2256 47.7933 25.2098 47.735 25.1875C47.7242 25.1834 47.7134 25.1791 47.7028 25.1745Z" fill="#DC1F70"/>
</mask>
<g mask="url(#mask1_601_82)">
<path d="M47.7028 25.1745L47.8946 24.7254L47.884 24.7209L47.8733 24.7168L47.7028 25.1745ZM48.0928 22.1205L47.7878 22.5019L48.085 22.7395L48.3882 22.5095L48.0928 22.1205ZM48.6588 25.0949L48.4394 24.6586L48.4044 24.6762L48.3726 24.6991L48.6588 25.0949ZM47.9149 25.2354L48.0104 24.7564L48.001 24.7544L47.9916 24.753L47.9149 25.2354ZM47.8733 24.7168C47.5419 24.5934 47.1569 24.2552 46.9071 23.7491L46.0313 24.1816C46.369 24.8657 46.9243 25.4057 47.5322 25.6322L47.8733 24.7168ZM46.9071 23.7491C46.7121 23.3541 46.6602 22.979 46.7027 22.7035C46.745 22.4292 46.8658 22.3026 46.9839 22.2554L46.622 21.3481C46.0932 21.5591 45.8157 22.0458 45.7374 22.5546C45.659 23.062 45.7636 23.6397 46.0313 24.1816L46.9071 23.7491ZM46.9839 22.2554C47.143 22.1919 47.4367 22.2212 47.7878 22.5019L48.3979 21.7391C47.9061 21.3458 47.2402 21.1016 46.622 21.3481L46.9839 22.2554ZM49.486 21.3858C48.8969 21.1614 48.2704 21.3725 47.7976 21.7315L48.3882 22.5095C48.7094 22.2657 48.9806 22.2386 49.1383 22.2986L49.486 21.3858ZM50.1453 24.1725C50.399 23.6343 50.4882 23.0621 50.3958 22.5613C50.303 22.0585 50.0127 21.5864 49.486 21.3858L49.1383 22.2986C49.2632 22.3463 49.3863 22.4734 49.4353 22.7384C49.4845 23.0057 49.4436 23.3704 49.2618 23.756L50.1453 24.1725ZM48.8784 25.5312C49.3976 25.2701 49.8587 24.7806 50.1453 24.1725L49.2618 23.756C49.0558 24.1931 48.7389 24.5079 48.4394 24.6586L48.8784 25.5312ZM48.3726 24.6991C48.3501 24.7155 48.325 24.7294 48.2969 24.7406L48.659 25.648C48.7618 25.6069 48.8575 25.5541 48.9452 25.4907L48.3726 24.6991ZM48.2969 24.7406C48.2245 24.7696 48.1304 24.7803 48.0104 24.7564L47.8194 25.7143C48.0934 25.769 48.3835 25.7577 48.659 25.648L48.2969 24.7406ZM47.5613 25.6439C47.6519 25.6785 47.7446 25.7028 47.8382 25.7177L47.9916 24.753C47.9623 24.7483 47.9348 24.741 47.9089 24.7311L47.5613 25.6439ZM47.511 25.6237C47.5276 25.6308 47.5443 25.6376 47.5613 25.6439L47.9089 24.7311C47.904 24.7293 47.8993 24.7273 47.8946 24.7254L47.511 25.6237Z" fill="#DC1F70"/>
</g>
<path fill-rule="evenodd" clip-rule="evenodd" d="M34.9481 33.2835C34.3502 33.0607 33.7516 32.5016 33.3775 31.744C32.7886 30.5513 32.979 29.3181 33.8025 28.9895C34.2973 28.7922 34.9082 28.9662 35.4448 29.3954C35.9503 29.0116 36.5217 28.86 36.997 29.041C37.8267 29.357 38.0498 30.5667 37.4953 31.7427C37.1818 32.4081 36.6865 32.92 36.1653 33.1822C36.0951 33.233 36.0183 33.2755 35.935 33.3087C35.7136 33.397 35.4691 33.4109 35.2183 33.3609C35.14 33.3485 35.0635 33.3283 34.9892 33.3001C34.9754 33.2948 34.9616 33.2893 34.9481 33.2835Z" fill="#DC1F70"/>
<mask id="mask2_601_82" style="mask-type:luminance" maskUnits="userSpaceOnUse" x="33" y="28" width="5" height="6">
<path fill-rule="evenodd" clip-rule="evenodd" d="M34.9481 33.2835C34.3502 33.0607 33.7516 32.5016 33.3775 31.744C32.7886 30.5513 32.979 29.3181 33.8025 28.9895C34.2973 28.7922 34.9082 28.9662 35.4448 29.3954C35.9503 29.0116 36.5217 28.86 36.997 29.041C37.8267 29.357 38.0498 30.5667 37.4953 31.7427C37.1818 32.4081 36.6865 32.92 36.1653 33.1822C36.0951 33.233 36.0183 33.2755 35.935 33.3087C35.7136 33.397 35.4691 33.4109 35.2183 33.3609C35.14 33.3485 35.0635 33.3283 34.9892 33.3001C34.9754 33.2948 34.9616 33.2893 34.9481 33.2835Z" fill="#DC1F70"/>
</mask>
<g mask="url(#mask2_601_82)">
<path d="M34.9481 33.2835L35.1401 32.8343L35.1294 32.8298L35.1187 32.8258L34.9481 33.2835ZM35.4448 29.3954L35.1397 29.7767L35.4369 30.0144L35.7401 29.7844L35.4448 29.3954ZM36.1653 33.1822L35.9459 32.7458L35.9109 32.7635L35.8791 32.7865L36.1653 33.1822ZM35.2183 33.3609L35.3137 32.8819L35.3044 32.8801L35.2949 32.8786L35.2183 33.3609ZM35.1187 32.8258C34.659 32.6546 34.1455 32.1963 33.8155 31.5277L32.9396 31.9602C33.3576 32.8068 34.0414 33.4668 34.7777 33.7412L35.1187 32.8258ZM33.8155 31.5277C33.5573 31.0049 33.484 30.4996 33.5431 30.1172C33.6018 29.7359 33.777 29.5255 33.9835 29.4432L33.6216 28.5359C33.0044 28.7821 32.6727 29.3525 32.5777 29.9683C32.4829 30.5827 32.6089 31.2904 32.9396 31.9602L33.8155 31.5277ZM33.9835 29.4432C34.2487 29.3374 34.6736 29.4039 35.1397 29.7767L35.7498 29.0139C35.1429 28.5285 34.346 28.2469 33.6216 28.5359L33.9835 29.4432ZM37.1709 28.5846C36.4799 28.3214 35.7309 28.565 35.1495 29.0062L35.7401 29.7844C36.1698 29.4581 36.5635 29.3985 36.8232 29.4974L37.1709 28.5846ZM37.9371 31.9509C38.2504 31.2866 38.3573 30.5865 38.2455 29.9807C38.1335 29.373 37.7866 28.8192 37.1709 28.5846L36.8232 29.4974C37.0372 29.579 37.2167 29.7879 37.285 30.1579C37.3536 30.53 37.2949 31.0227 37.0536 31.5344L37.9371 31.9509ZM36.3847 33.6186C37.0158 33.3011 37.5833 32.7017 37.9371 31.9509L37.0536 31.5344C36.7802 32.1143 36.3573 32.539 35.9459 32.7458L36.3847 33.6186ZM35.8791 32.7865C35.8415 32.8137 35.8 32.8366 35.7541 32.855L36.116 33.7623C36.2366 33.7142 36.3488 33.6523 36.4515 33.5779L35.8791 32.7865ZM35.7541 32.855C35.6342 32.9028 35.4875 32.9166 35.3137 32.8819L35.1228 33.8399C35.4507 33.9053 35.7932 33.8911 36.116 33.7623L35.7541 32.855ZM34.8155 33.7565C34.922 33.7971 35.0311 33.8258 35.1416 33.8432L35.2949 32.8786C35.2488 32.8713 35.205 32.8596 35.1631 32.8437L34.8155 33.7565ZM34.7563 33.7326C34.7758 33.7409 34.7956 33.749 34.8155 33.7565L35.1631 32.8437C35.1553 32.8407 35.1475 32.8376 35.1401 32.8343L34.7563 33.7326Z" fill="#DC1F70"/>
</g>
<path fill-rule="evenodd" clip-rule="evenodd" d="M25.9436 46.0521C25.3429 45.646 24.8315 44.8686 24.6211 43.9317C24.29 42.4571 24.83 41.1463 25.8275 41.0038C26.4267 40.9182 27.0547 41.2739 27.5324 41.8913C28.1934 41.6029 28.8648 41.5884 29.3414 41.9155C30.173 42.4864 30.0957 43.8819 29.1688 45.0323C28.6445 45.683 27.9606 46.116 27.3148 46.2659C27.2237 46.3033 27.1276 46.3295 27.0266 46.3439C26.7586 46.3823 26.4847 46.3322 26.2211 46.21C26.1381 46.1753 26.059 46.1326 25.9846 46.0815C25.9707 46.0719 25.957 46.0621 25.9436 46.0521Z" fill="#DC1F70"/>
<path d="M75.8178 23.4546C76.1039 23.1685 76.5684 23.168 76.8488 23.4596C83.1311 29.9899 86.8503 38.5769 87.306 47.6435C87.7739 56.9541 84.7669 66.1067 78.8684 73.3259C72.9698 80.5449 64.6001 85.3158 55.3829 86.713C46.1658 88.11 36.7582 86.0338 28.9852 80.8872C21.2122 75.7404 15.6279 67.8901 13.3156 58.859C11.0033 49.8278 12.1278 40.2597 16.471 32.0109C20.8143 23.7619 28.0665 17.4203 36.821 14.216C45.3459 11.0957 54.7034 11.1671 63.1682 14.4012C63.5461 14.5457 63.7271 14.9735 63.5753 15.3485L63.4196 15.7333C63.268 16.1084 62.841 16.2887 62.463 16.1447C54.4304 13.0851 45.5544 13.0217 37.4673 15.9817C29.1505 19.0258 22.2609 25.0504 18.1348 32.8868C14.0088 40.7233 12.9405 49.8129 15.1372 58.3926C17.3339 66.9722 22.6389 74.43 30.0233 79.3194C37.4077 84.2088 46.3448 86.1811 55.1011 84.8539C63.8574 83.5265 71.8087 78.9943 77.4123 72.1361C83.0159 65.278 85.8725 56.583 85.4279 47.7379C84.9957 39.1369 81.4719 30.9901 75.5192 24.7895C75.2389 24.4977 75.2382 24.0343 75.5243 23.7481L75.8178 23.4546Z" fill="#DC1F70"/>
<path d="M99.9254 49.9626C99.9254 77.5563 77.5563 99.9254 49.9626 99.9254C22.3691 99.9254 0 77.5563 0 49.9626C0 22.3691 22.3691 0 49.9626 0C77.5563 0 99.9254 22.3691 99.9254 49.9626ZM1.99851 49.9626C1.99851 76.4526 23.4728 97.9269 49.9626 97.9269C76.4526 97.9269 97.9269 76.4526 97.9269 49.9626C97.9269 23.4728 76.4526 1.99851 49.9626 1.99851C23.4728 1.99851 1.99851 23.4728 1.99851 49.9626Z" fill="#DC1F70"/>
<path d="M6.74843 49.1797L7.09109 50.2343H8.19998L7.30287 50.8861L7.64553 51.9408L6.74843 51.289L5.85132 51.9408L6.19398 50.8861L5.29688 50.2343H6.40576L6.74843 49.1797Z" fill="#DC1F70"/>
<path d="M7.649 57.2599L7.99166 58.3145H9.10055L8.20344 58.9663L8.54611 60.021L7.649 59.3691L6.75189 60.021L7.09455 58.9663L6.19745 58.3145H7.30634L7.649 57.2599Z" fill="#DC1F70"/>
<path d="M10.2324 65.1817L10.575 66.2364H11.6839L10.7868 66.8882L11.1295 67.9427L10.2324 67.291L9.33527 67.9427L9.67793 66.8882L8.78082 66.2364H9.88971L10.2324 65.1817Z" fill="#DC1F70"/>
<path d="M13.9739 72.5425L14.3165 73.5971H15.4254L14.5282 74.249L14.8709 75.3035L13.9739 74.6518L13.0767 75.3035L13.4194 74.249L12.5222 73.5971H13.6311L13.9739 72.5425Z" fill="#DC1F70"/>
<path d="M18.8238 78.293L19.1665 79.3477H20.2754L19.3783 79.9995L19.7209 81.0541L18.8238 80.4023L17.9266 81.0541L18.2694 79.9995L17.3722 79.3477H18.4811L18.8238 78.293Z" fill="#DC1F70"/>
<path d="M25.0035 83.5818L25.3461 84.6365H26.4551L25.558 85.2883L25.9006 86.3428L25.0035 85.6911L24.1065 86.3428L24.4491 85.2883L23.552 84.6365H24.6609L25.0035 83.5818Z" fill="#DC1F70"/>
<path d="M32.0246 87.4684L32.3674 88.523H33.4762L32.5791 89.1747L32.9217 90.2293L32.0246 89.5775L31.1276 90.2293L31.4702 89.1747L30.5731 88.523H31.682L32.0246 87.4684Z" fill="#DC1F70"/>
<path d="M39.8376 89.8667L40.1804 90.9213H41.2893L40.3921 91.5731L40.7348 92.6277L39.8376 91.976L38.9406 92.6277L39.2833 91.5731L38.3861 90.9213H39.495L39.8376 89.8667Z" fill="#DC1F70"/>
<path d="M92.6923 49.4313L93.0349 50.486H94.1438L93.2468 51.1377L93.5894 52.1923L92.6923 51.5406L91.7952 52.1923L92.1379 51.1377L91.2408 50.486H92.3496L92.6923 49.4313Z" fill="#DC1F70"/>
<path d="M91.9088 56.9038L92.2514 57.9584H93.3603L92.4633 58.6103L92.8059 59.6648L91.9088 59.0131L91.0117 59.6648L91.3544 58.6103L90.4573 57.9584H91.5661L91.9088 56.9038Z" fill="#DC1F70"/>
<path d="M89.711 63.8635L90.0536 64.9181H91.1625L90.2654 65.57L90.6081 66.6245L89.711 65.9728L88.8139 66.6245L89.1565 65.57L88.2595 64.9181H89.3683L89.711 63.8635Z" fill="#DC1F70"/>
<path d="M86.5364 70.4569L86.879 71.5115H87.9879L87.0908 72.1634L87.4334 73.218L86.5364 72.5662L85.6393 73.218L85.9819 72.1634L85.0848 71.5115H86.1936L86.5364 70.4569Z" fill="#DC1F70"/>
<path d="M82.1408 76.4398L82.4834 77.4944H83.5923L82.6953 78.1463L83.0379 79.2009L82.1408 78.5491L81.2437 79.2009L81.5863 78.1463L80.6893 77.4944H81.7981L82.1408 76.4398Z" fill="#DC1F70"/>
<path d="M77.2568 81.3238L77.5994 82.3784H78.7083L77.8112 83.0303L78.1538 84.0848L77.2568 83.4331L76.3597 84.0848L76.7023 83.0303L75.8052 82.3784H76.914L77.2568 81.3238Z" fill="#DC1F70"/>
<path d="M70.9076 85.5973L71.2502 86.6519H72.3591L71.462 87.3038L71.8047 88.3584L70.9076 87.7066L70.0105 88.3584L70.3531 87.3038L69.4561 86.6519H70.5649L70.9076 85.5973Z" fill="#DC1F70"/>
<path d="M64.0699 88.6498L64.4126 89.7044H65.5215L64.6244 90.3563L64.967 91.4109L64.0699 90.7591L63.1729 91.4109L63.5155 90.3563L62.6184 89.7044H63.7272L64.0699 88.6498Z" fill="#DC1F70"/>
<path d="M56.6219 90.6034L56.9645 91.658H58.0734L57.1763 92.3099L57.5189 93.3645L56.6219 92.7127L55.7248 93.3645L56.0674 92.3099L55.1703 91.658H56.2791L56.6219 90.6034Z" fill="#DC1F70"/>
<path d="M48.3191 90.9697L48.6617 92.0243H49.7706L48.8735 92.6762L49.2161 93.7308L48.3191 93.079L47.422 93.7308L47.7646 92.6762L46.8676 92.0243H47.9763L48.3191 90.9697Z" fill="#DC1F70"/>
<path d="M92.4119 42.6086L92.7545 43.6631H93.8634L92.9663 44.3149L93.3089 45.3695L92.4119 44.7177L91.5148 45.3695L91.8574 44.3149L90.9603 43.6631H92.0691L92.4119 42.6086Z" fill="#DC1F70"/>
<path d="M90.8282 35.5911L91.171 36.6457H92.2798L91.3827 37.2974L91.7253 38.3521L90.8282 37.7003L89.9312 38.3521L90.2738 37.2974L89.3767 36.6457H90.4856L90.8282 35.5911Z" fill="#DC1F70"/>
<path d="M88.2945 28.9762L88.6371 30.0308H89.746L88.8488 30.6825L89.1916 31.7372L88.2945 31.0855L87.3973 31.7372L87.74 30.6825L86.8428 30.0308H87.9518L88.2945 28.9762Z" fill="#DC1F70"/>
<path d="M84.4805 22.8232L84.8232 23.8778H85.932L85.0349 24.5296L85.3776 25.5841L84.4805 24.9324L83.5834 25.5841L83.926 24.5296L83.0289 23.8778H84.1378L84.4805 22.8232Z" fill="#DC1F70"/>
<path d="M78.8595 16.6907L79.2021 17.7454H80.311L79.4139 18.3972L79.7566 19.4518L78.8595 18.8L77.9623 19.4518L78.305 18.3972L77.408 17.7454H78.5167L78.8595 16.6907Z" fill="#DC1F70"/>
<path d="M72.2905 11.7054L72.6331 12.76H73.742L72.8448 13.4117L73.1875 14.4664L72.2905 13.8145L71.3933 14.4664L71.736 13.4117L70.8388 12.76H71.9477L72.2905 11.7054Z" fill="#DC1F70"/>
<path d="M66.1144 8.20807L66.457 9.26268H67.566L66.6689 9.91447L67.0115 10.9691L66.1144 10.3173L65.2172 10.9691L65.56 9.91447L64.6629 9.26268H65.7717L66.1144 8.20807Z" fill="#DC1F70"/>
<path d="M58.9748 5.97772L59.3176 7.03234H60.4264L59.5293 7.68412L59.8719 8.73874L58.9748 8.08695L58.0778 8.73874L58.4204 7.68412L57.5233 7.03234H58.6322L58.9748 5.97772Z" fill="#DC1F70"/>
<path d="M51.202 4.94174L51.5446 5.99636H52.6535L51.7563 6.64814L52.099 7.70275L51.202 7.05097L50.3048 7.70275L50.6475 6.64814L49.7503 5.99636H50.8592L51.202 4.94174Z" fill="#DC1F70"/>
<path d="M43.8013 5.37753L44.1439 6.43215H45.2528L44.3558 7.08393L44.6984 8.13855L43.8013 7.48676L42.9042 8.13855L43.2469 7.08393L42.3498 6.43215H43.4586L43.8013 5.37753Z" fill="#DC1F70"/>
<path d="M35.7427 7.45325L36.0853 8.50786H37.1943L36.2972 9.15965L36.6398 10.2143L35.7427 9.56248L34.8457 10.2143L35.1883 9.15965L34.2912 8.50786H35.4L35.7427 7.45325Z" fill="#DC1F70"/>
<path d="M28.5388 10.6278L28.8814 11.6825H29.9903L29.0933 12.3343L29.4359 13.3889L28.5388 12.7371L27.6417 13.3889L27.9843 12.3343L27.0873 11.6825H28.1961L28.5388 10.6278Z" fill="#DC1F70"/>
<path d="M21.7012 15.6339L22.0438 16.6885H23.1527L22.2557 17.3404L22.5983 18.395L21.7012 17.7432L20.8042 18.395L21.1468 17.3404L20.2497 16.6885H21.3585L21.7012 15.6339Z" fill="#DC1F70"/>
<path d="M16.9393 20.2737L17.2819 21.3283H18.3908L17.4938 21.9802L17.8364 23.0348L16.9393 22.383L16.0422 23.0348L16.3849 21.9802L15.4878 21.3283H16.5966L16.9393 20.2737Z" fill="#DC1F70"/>
<path d="M12.2995 26.623L12.6422 27.6775H13.7511L12.854 28.3294L13.1966 29.384L12.2995 28.7322L11.4024 29.384L11.7451 28.3294L10.848 27.6775H11.9569L12.2995 26.623Z" fill="#DC1F70"/>
<path d="M9.12489 33.7048L9.46756 34.7594H10.5765L9.67933 35.4112L10.022 36.4658L9.12489 35.8141L8.22778 36.4658L8.57046 35.4112L7.67334 34.7594H8.78223L9.12489 33.7048Z" fill="#DC1F70"/>
<path d="M7.17128 41.1529L7.51395 42.2074H8.62284L7.72572 42.8593L8.0684 43.9139L7.17128 43.2621L6.27417 43.9139L6.61685 42.8593L5.71973 42.2074H6.82862L7.17128 41.1529Z" fill="#DC1F70"/>
</g>
<defs>
<filter id="filter0_d_601_82" x="68.4316" y="18.4461" width="3.33666" height="3.18148" filterUnits="userSpaceOnUse" color-interpolation-filters="sRGB">
<feFlood flood-opacity="0" result="BackgroundImageFix"/>
<feColorMatrix in="SourceAlpha" type="matrix" values="0 0 0 0 0 0 0 0 0 0 0 0 0 0 0 0 0 0 127 0" result="hardAlpha"/>
<feOffset dy="0.4884"/>
<feGaussianBlur stdDeviation="0.2442"/>
<feComposite in2="hardAlpha" operator="out"/>
<feColorMatrix type="matrix" values="0 0 0 0 0 0 0 0 0 0 0 0 0 0 0 0 0 0 0.25 0"/>
<feBlend mode="normal" in2="BackgroundImageFix" result="effect1_dropShadow_601_82"/>
<feBlend mode="normal" in="SourceGraphic" in2="effect1_dropShadow_601_82" result="shape"/>
</filter>
<filter id="filter1_d_601_82" x="62.4254" y="19.1649" width="9.06054" height="12.5562" filterUnits="userSpaceOnUse" color-interpolation-filters="sRGB">
<feFlood flood-opacity="0" result="BackgroundImageFix"/>
<feColorMatrix in="SourceAlpha" type="matrix" values="0 0 0 0 0 0 0 0 0 0 0 0 0 0 0 0 0 0 127 0" result="hardAlpha"/>
<feOffset dy="0.4884"/>
<feGaussianBlur stdDeviation="0.2442"/>
<feComposite in2="hardAlpha" operator="out"/>
<feColorMatrix type="matrix" values="0 0 0 0 0 0 0 0 0 0 0 0 0 0 0 0 0 0 0.25 0"/>
<feBlend mode="normal" in2="BackgroundImageFix" result="effect1_dropShadow_601_82"/>
<feBlend mode="normal" in="SourceGraphic" in2="effect1_dropShadow_601_82" result="shape"/>
</filter>
<clipPath id="clip0_601_82">
<rect width="100" height="100" fill="white"/>
</clipPath>
</defs>
</svg>
