<svg width="555" height="146" viewBox="0 0 555 146" fill="none" xmlns="http://www.w3.org/2000/svg">
<g filter="url(#filter0_i_1_17)">
<path d="M191.2 115.52C184.267 115.52 178.113 114.09 172.74 111.23C167.367 108.37 163.163 104.427 160.13 99.4C157.097 94.2867 155.537 88.48 155.45 81.98H161.82C161.82 75.3933 163.163 69.63 165.85 64.69C168.623 59.6633 172.393 55.72 177.16 52.86C182.013 50 187.56 48.57 193.8 48.57C200.04 48.57 205.543 50 210.31 52.86C215.163 55.72 218.933 59.6633 221.62 64.69C224.393 69.63 225.78 75.3933 225.78 81.98C225.78 88.48 224.307 94.2867 221.36 99.4C218.413 104.427 214.34 108.37 209.14 111.23C203.94 114.09 197.96 115.52 191.2 115.52ZM191.2 103.82C195.533 103.82 199.303 102.91 202.51 101.09C205.803 99.1833 208.36 96.5833 210.18 93.29C212.087 89.9967 213.04 86.2267 213.04 81.98C213.04 77.7333 212.087 74.0067 210.18 70.8C208.36 67.5067 205.803 64.95 202.51 63.13C199.303 61.2233 195.533 60.27 191.2 60.27C186.693 60.27 182.707 61.2233 179.24 63.13C175.773 64.95 173.043 67.5067 171.05 70.8C169.143 74.0067 168.19 77.7333 168.19 81.98C168.19 86.2267 169.143 89.9967 171.05 93.29C173.043 96.5833 175.773 99.1833 179.24 101.09C182.707 102.91 186.693 103.82 191.2 103.82ZM155.45 81.98L155.58 67.29C155.667 57.0633 158.483 47.7033 164.03 39.21C169.663 30.7167 178.373 23.8267 190.16 18.54L214.47 7.74999C216.203 7.05666 217.763 6.96999 219.15 7.49C220.537 7.92333 221.533 8.92 222.14 10.48C222.747 12.1267 222.877 13.6433 222.53 15.03C222.27 16.33 221.013 17.5 218.76 18.54L192.37 30.63C186.303 33.4033 181.32 36.6967 177.42 40.51C173.52 44.3233 170.617 48.6133 168.71 53.38C166.89 58.06 165.893 63.13 165.72 68.59L165.46 81.98H155.45Z" fill="#FFB5B5"/>
<path d="M242.204 85.6803C242.204 112.304 226.235 109.783 203.451 109.783C180.667 109.783 160.53 112.304 160.53 85.6803C164.697 58.6558 179 50.1345 201.784 50.1345C224.568 50.1345 237.829 61.5773 242.204 85.6803Z" fill="#F2F0C8" stroke="#FFB5B5" stroke-width="11"/>
<g filter="url(#filter1_i_1_17)">
<path d="M222.876 83.0994C222.876 96.5185 214.586 95.2481 202.76 95.2481C190.933 95.2481 180.481 96.5185 180.481 83.0994C182.644 69.4781 190.068 65.1831 201.895 65.1831C213.721 65.1831 220.605 70.9507 222.876 83.0994Z" fill="#D179BB"/>
</g>
<path d="M19.76 115C17.8533 115 16.25 114.35 14.95 113.05C13.65 111.75 13 110.147 13 108.24V20.23C13 18.2367 13.65 16.6333 14.95 15.42C16.25 14.12 17.8533 13.47 19.76 13.47C21.7533 13.47 23.3567 14.12 24.57 15.42C25.87 16.6333 26.52 18.2367 26.52 20.23V108.24C26.52 110.147 25.87 111.75 24.57 113.05C23.3567 114.35 21.7533 115 19.76 115ZM57.8124 115C55.9058 115 54.3024 114.393 53.0024 113.18C51.7891 111.88 51.1824 110.277 51.1824 108.37V50.52C51.1824 48.5267 51.7891 46.9233 53.0024 45.71C54.3024 44.4967 55.9058 43.89 57.8124 43.89C60.5858 43.89 62.9258 45.2333 64.8324 47.92L91.7424 86.79L118.652 47.92C120.559 45.2333 122.899 43.89 125.672 43.89C127.666 43.89 129.269 44.4967 130.482 45.71C131.696 46.9233 132.302 48.5267 132.302 50.52V108.37C132.302 110.277 131.696 111.88 130.482 113.18C129.269 114.393 127.666 115 125.672 115C123.766 115 122.162 114.393 120.862 113.18C119.649 111.88 119.042 110.277 119.042 108.37V61.05L122.422 62.09L98.5024 95.89C96.3358 98.9233 93.9958 100.44 91.4824 100.44C88.9691 100.353 86.6724 98.8367 84.5924 95.89L61.0624 62.09L64.4424 61.05V108.37C64.4424 110.277 63.8358 111.88 62.6224 113.18C61.4091 114.393 59.8058 115 57.8124 115ZM280.782 115C278.876 115 277.272 114.393 275.972 113.18C274.759 111.88 274.152 110.277 274.152 108.37V50.52C274.152 48.5267 274.759 46.9233 275.972 45.71C277.272 44.4967 278.876 43.89 280.782 43.89C282.776 43.89 284.379 44.4967 285.592 45.71C286.806 46.9233 287.412 48.5267 287.412 50.52V108.37C287.412 110.277 286.806 111.88 285.592 113.18C284.379 114.393 282.776 115 280.782 115ZM280.782 32.32C278.442 32.32 276.406 31.4967 274.672 29.85C273.026 28.1167 272.202 26.08 272.202 23.74C272.202 21.4 273.026 19.4067 274.672 17.76C276.406 16.0267 278.442 15.16 280.782 15.16C283.122 15.16 285.116 16.0267 286.762 17.76C288.496 19.4067 289.362 21.4 289.362 23.74C289.362 26.08 288.496 28.1167 286.762 29.85C285.116 31.4967 283.122 32.32 280.782 32.32ZM318.711 145.42C316.804 145.42 315.201 144.77 313.901 143.47C312.688 142.257 312.081 140.697 312.081 138.79V79.51C312.168 72.6633 313.771 66.51 316.891 61.05C320.011 55.59 324.258 51.3 329.631 48.18C335.004 44.9733 341.071 43.37 347.831 43.37C354.678 43.37 360.788 44.9733 366.161 48.18C371.534 51.3 375.781 55.59 378.901 61.05C382.108 66.51 383.711 72.6633 383.711 79.51C383.711 86.3567 382.238 92.51 379.291 97.97C376.431 103.343 372.488 107.633 367.461 110.84C362.434 113.96 356.758 115.52 350.431 115.52C345.318 115.52 340.594 114.48 336.261 112.4C332.014 110.233 328.374 107.33 325.341 103.69V138.79C325.341 140.697 324.734 142.257 323.521 143.47C322.308 144.77 320.704 145.42 318.711 145.42ZM347.831 103.82C352.251 103.82 356.194 102.78 359.661 100.7C363.128 98.5333 365.858 95.63 367.851 91.99C369.931 88.2633 370.971 84.1033 370.971 79.51C370.971 74.83 369.931 70.67 367.851 67.03C365.858 63.3033 363.128 60.4 359.661 58.32C356.194 56.1533 352.251 55.07 347.831 55.07C343.498 55.07 339.554 56.1533 336.001 58.32C332.534 60.4 329.804 63.3033 327.811 67.03C325.818 70.67 324.821 74.83 324.821 79.51C324.821 84.1033 325.818 88.2633 327.811 91.99C329.804 95.63 332.534 98.5333 336.001 100.7C339.554 102.78 343.498 103.82 347.831 103.82ZM461.207 113.44C460.08 114.48 458.477 115 456.397 115C454.404 114.913 452.844 114.307 451.717 113.18L420.127 79.25L449.897 45.97C451.024 44.7567 452.584 44.0633 454.577 43.89C456.657 43.7167 458.26 44.15 459.387 45.19C460.687 46.4033 461.424 47.79 461.597 49.35C461.77 50.8233 461.294 52.1667 460.167 53.38L436.637 78.6L461.597 105.38C462.724 106.507 463.287 107.85 463.287 109.41C463.287 110.883 462.594 112.227 461.207 113.44ZM409.727 115.13C407.82 115.13 406.304 114.523 405.177 113.31C404.05 112.01 403.487 110.407 403.487 108.5V50.52C403.487 48.5267 404.05 46.9233 405.177 45.71C406.304 44.4967 407.82 43.89 409.727 43.89C411.72 43.89 413.324 44.4967 414.537 45.71C415.837 46.9233 416.487 48.5267 416.487 50.52V72.23H433.127V84.45H416.487V108.5C416.487 110.407 415.837 112.01 414.537 113.31C413.324 114.523 411.72 115.13 409.727 115.13ZM502.697 115.52C496.371 115.52 490.694 113.96 485.667 110.84C480.641 107.633 476.654 103.343 473.707 97.97C470.847 92.51 469.417 86.3567 469.417 79.51C469.417 72.6633 470.977 66.51 474.097 61.05C477.304 55.59 481.594 51.3 486.967 48.18C492.427 44.9733 498.537 43.37 505.297 43.37C512.057 43.37 518.124 44.9733 523.497 48.18C528.871 51.3 533.117 55.59 536.237 61.05C539.444 66.51 541.047 72.6633 541.047 79.51H535.977C535.977 86.3567 534.504 92.51 531.557 97.97C528.697 103.343 524.754 107.633 519.727 110.84C514.701 113.96 509.024 115.52 502.697 115.52ZM505.297 103.82C509.717 103.82 513.661 102.78 517.127 100.7C520.594 98.5333 523.324 95.63 525.317 91.99C527.311 88.2633 528.307 84.1033 528.307 79.51C528.307 74.83 527.311 70.67 525.317 67.03C523.324 63.3033 520.594 60.4 517.127 58.32C513.661 56.1533 509.717 55.07 505.297 55.07C500.964 55.07 497.021 56.1533 493.467 58.32C490.001 60.4 487.227 63.3033 485.147 67.03C483.154 70.67 482.157 74.83 482.157 79.51C482.157 84.1033 483.154 88.2633 485.147 91.99C487.227 95.63 490.001 98.5333 493.467 100.7C497.021 102.78 500.964 103.82 505.297 103.82ZM534.417 115.13C532.511 115.13 530.907 114.523 529.607 113.31C528.394 112.01 527.787 110.407 527.787 108.5V88.61L530.257 74.83L541.047 79.51V108.5C541.047 110.407 540.397 112.01 539.097 113.31C537.884 114.523 536.324 115.13 534.417 115.13Z" fill="#FFB5B5"/>
</g>
<defs>
<filter id="filter0_i_1_17" x="12" y="6.70999" width="529.047" height="142.71" filterUnits="userSpaceOnUse" color-interpolation-filters="sRGB">
<feFlood flood-opacity="0" result="BackgroundImageFix"/>
<feBlend mode="normal" in="SourceGraphic" in2="BackgroundImageFix" result="shape"/>
<feColorMatrix in="SourceAlpha" type="matrix" values="0 0 0 0 0 0 0 0 0 0 0 0 0 0 0 0 0 0 127 0" result="hardAlpha"/>
<feOffset dx="-1" dy="4"/>
<feGaussianBlur stdDeviation="2.5"/>
<feComposite in2="hardAlpha" operator="arithmetic" k2="-1" k3="1"/>
<feColorMatrix type="matrix" values="0 0 0 0 0 0 0 0 0 0 0 0 0 0 0 0 0 0 0.25 0"/>
<feBlend mode="normal" in2="shape" result="effect1_innerShadow_1_17"/>
</filter>
<filter id="filter1_i_1_17" x="180.481" y="65.1831" width="46.3952" height="35.0972" filterUnits="userSpaceOnUse" color-interpolation-filters="sRGB">
<feFlood flood-opacity="0" result="BackgroundImageFix"/>
<feBlend mode="normal" in="SourceGraphic" in2="BackgroundImageFix" result="shape"/>
<feColorMatrix in="SourceAlpha" type="matrix" values="0 0 0 0 0 0 0 0 0 0 0 0 0 0 0 0 0 0 127 0" result="hardAlpha"/>
<feOffset dx="4" dy="5"/>
<feGaussianBlur stdDeviation="3.5"/>
<feComposite in2="hardAlpha" operator="arithmetic" k2="-1" k3="1"/>
<feColorMatrix type="matrix" values="0 0 0 0 0 0 0 0 0 0 0 0 0 0 0 0 0 0 0.25 0"/>
<feBlend mode="normal" in2="shape" result="effect1_innerShadow_1_17"/>
</filter>
</defs>
</svg>
