<svg width="384" height="332" viewBox="0 0 384 332" fill="none" xmlns="http://www.w3.org/2000/svg">
<path d="M32.4038 187.324V144.612H40.9521V187.324H32.4038ZM75.1753 159.952L90.5146 144.612L96.5015 150.599L96.4121 150.688H96.5015V187.324H87.9531V159.147L75.1157 171.985L62.3379 159.207V187.324H53.7896V150.688L59.8657 144.612L75.1753 159.952ZM109.309 187.324V144.612H152.021V153.161H117.857V161.709H145.945L152.021 167.755V181.248L145.945 187.324H109.309ZM143.473 178.776V170.227H117.857V178.776H143.473ZM164.829 187.324V144.612H173.377V187.324H164.829ZM192.261 144.731H222.761C223.972 145.883 225.987 147.899 228.807 150.778V164.241C227.675 165.452 225.66 167.467 222.761 170.287H194.733V187.324H186.214V150.778C187.366 149.566 189.382 147.551 192.261 144.731ZM194.733 153.25V161.768H220.289V153.25H194.733ZM250.163 187.324H241.615V144.612H250.163V161.709H261.273L278.28 144.612L284.356 150.688L269.017 166.028L284.356 181.337L278.37 187.324L261.243 170.257H250.163V187.324ZM303.27 187.324V187.235L303.181 187.324L297.194 181.337L333.919 144.612L339.906 150.599L339.816 150.688H339.906V187.324H331.357V159.147L311.729 178.776H322.809V187.324H303.27Z" fill="#F8B0B0"/>
<mask id="path-2-outside-1_10_439" maskUnits="userSpaceOnUse" x="4" y="178.324" width="364" height="154" fill="black">
<rect fill="white" x="4" y="178.324" width="364" height="154"/>
<path fill-rule="evenodd" clip-rule="evenodd" d="M25 179.324H9.50414H6L6.53998 182.786C19.5817 266.409 95.0761 330.374 186.051 330.374C277.025 330.374 352.519 266.409 365.561 182.786L366.101 179.324H362.597H349V185.324H359.054C344.974 264.173 272.965 324.374 186.051 324.374C99.1364 324.374 27.1272 264.173 13.0474 185.324H25V179.324Z"/>
</mask>
<path fill-rule="evenodd" clip-rule="evenodd" d="M25 179.324H9.50414H6L6.53998 182.786C19.5817 266.409 95.0761 330.374 186.051 330.374C277.025 330.374 352.519 266.409 365.561 182.786L366.101 179.324H362.597H349V185.324H359.054C344.974 264.173 272.965 324.374 186.051 324.374C99.1364 324.374 27.1272 264.173 13.0474 185.324H25V179.324Z" fill="#F8B0B0"/>
<path d="M25 179.324H26V178.324H25V179.324ZM6 179.324V178.324H4.83195L5.01194 179.478L6 179.324ZM6.53998 182.786L5.55192 182.941L5.55192 182.941L6.53998 182.786ZM365.561 182.786L364.573 182.632L364.573 182.632L365.561 182.786ZM366.101 179.324L367.089 179.478L367.269 178.324H366.101V179.324ZM349 179.324V178.324H348V179.324H349ZM349 185.324H348V186.324H349V185.324ZM359.054 185.324L360.038 185.5L360.248 184.324H359.054V185.324ZM13.0474 185.324V184.324H11.853L12.0629 185.5L13.0474 185.324ZM25 185.324V186.324H26V185.324H25ZM9.50414 180.324H25V178.324H9.50414V180.324ZM6 180.324H9.50414V178.324H6V180.324ZM7.52803 182.632L6.98806 179.17L5.01194 179.478L5.55192 182.941L7.52803 182.632ZM186.051 329.374C95.5414 329.374 20.4897 265.741 7.52803 182.632L5.55192 182.941C18.6738 267.077 94.6107 331.374 186.051 331.374V329.374ZM364.573 182.632C351.611 265.741 276.56 329.374 186.051 329.374V331.374C277.49 331.374 353.427 267.077 366.549 182.941L364.573 182.632ZM365.113 179.17L364.573 182.632L366.549 182.941L367.089 179.478L365.113 179.17ZM362.597 180.324H366.101V178.324H362.597V180.324ZM349 180.324H362.597V178.324H349V180.324ZM348 179.324V185.324H350V179.324H348ZM359.054 184.324H349V186.324H359.054V184.324ZM186.051 325.374C273.424 325.374 345.869 264.85 360.038 185.5L358.069 185.148C344.079 263.496 272.505 323.374 186.051 323.374V325.374ZM12.0629 185.5C26.2323 264.85 98.677 325.374 186.051 325.374V323.374C99.5958 323.374 28.0221 263.496 14.0318 185.148L12.0629 185.5ZM25 184.324H13.0474V186.324H25V184.324ZM26 185.324V179.324H24V185.324H26Z" fill="#F8B0B0" mask="url(#path-2-outside-1_10_439)"/>
<mask id="path-4-inside-2_10_439" fill="white">
<path fill-rule="evenodd" clip-rule="evenodd" d="M160.165 107.491C172.795 114.986 191.831 106.557 203.289 88.1347C215.053 69.2177 214.372 46.9273 201.766 38.3478C193.974 33.0444 183.449 34.2214 173.769 40.3618C164.874 32.2425 154.095 29.2591 145.211 33.66C131.457 40.4735 127.453 62.407 136.267 82.6497C141.715 95.1604 150.785 104.097 160.165 107.491Z"/>
</mask>
<path d="M203.289 88.1347L196.495 83.9097L196.495 83.9097L203.289 88.1347ZM160.165 107.491L164.248 100.611L163.598 100.225L162.887 99.968L160.165 107.491ZM201.766 38.3478L197.265 44.9614L197.265 44.9614L201.766 38.3478ZM173.769 40.3618L168.375 46.2704L172.891 50.3923L178.054 47.1173L173.769 40.3618ZM145.211 33.66L141.66 26.4913L145.211 33.66ZM136.267 82.6497L143.602 79.4557L143.602 79.4557L136.267 82.6497ZM196.495 83.9097C191.488 91.9614 185.018 97.4945 178.902 100.228C172.759 102.974 167.708 102.664 164.248 100.611L156.082 114.371C165.253 119.813 176.034 119.036 185.431 114.835C194.855 110.623 203.632 102.73 210.082 92.3596L196.495 83.9097ZM197.265 44.9614C200.8 47.3676 203.445 52.2567 203.67 59.6092C203.892 66.8797 201.636 75.6441 196.495 83.9097L210.082 92.3596C216.706 81.7082 219.991 69.869 219.662 59.1201C219.336 48.4534 215.337 37.9075 206.267 31.7343L197.265 44.9614ZM178.054 47.1173C186.183 41.9612 193.073 42.1087 197.265 44.9614L206.267 31.7343C194.874 23.9801 180.716 26.4816 169.484 33.6063L178.054 47.1173ZM148.762 40.8286C153.604 38.43 160.879 39.4272 168.375 46.2704L179.162 34.4533C168.869 25.0578 154.586 20.0882 141.66 26.4913L148.762 40.8286ZM143.602 79.4557C139.766 70.646 138.84 61.7103 140.146 54.5557C141.466 47.3254 144.825 42.7789 148.762 40.8286L141.66 26.4913C131.843 31.3546 126.323 41.1816 124.406 51.6821C122.475 62.2583 123.954 74.4107 128.933 85.8437L143.602 79.4557ZM162.887 99.968C156.029 97.487 148.386 90.4425 143.602 79.4557L128.933 85.8437C135.044 99.8783 145.541 110.708 157.444 115.014L162.887 99.968Z" fill="#F8B0B0" mask="url(#path-4-inside-2_10_439)"/>
<path fill-rule="evenodd" clip-rule="evenodd" d="M369.618 7.12971L376.191 13.7035C378.282 15.786 379.425 18.568 379.425 21.5307C379.425 24.4934 378.274 27.2714 376.191 29.3579L311.212 94.341L302.293 85.4215L279.314 108.396C279.954 110.777 280.119 113.638 280.135 116.679L280.147 117.662C280.218 121.689 279.774 125.992 278.819 130.448C278.26 133.048 277.54 135.689 276.651 138.388H268.335C269.543 135.084 270.475 131.898 271.145 128.793C271.189 128.586 271.217 128.386 271.244 128.185C271.268 128.013 271.291 127.84 271.326 127.662C268.906 131.536 266.295 135.181 263.993 138.388H254.261C255.233 137.084 256.197 135.769 257.149 134.444L257.577 133.85C260.139 130.283 263.109 126.121 265.671 121.823L249.106 138.388H237.997L260.394 115.992C254.643 119.322 249.009 123.582 244.01 127.361L243.966 127.395L242.771 128.294C238.643 131.413 234.436 134.753 230.064 138.388H217.937C225.017 132.243 231.616 126.877 238.036 122.027L239.227 121.127C243.966 117.54 249.255 113.579 254.811 110.204C240.023 112.663 222.531 121.995 201.965 138.388H189.595C223.758 109.466 251.039 97.8414 272.799 102.864C272.925 102.843 273.051 102.821 273.176 102.798C273.428 102.754 273.679 102.709 273.931 102.675L296.74 79.8654L288.984 72.1089L353.967 7.12971C358.132 2.96069 365.449 2.95284 369.618 7.12971ZM334.501 59.932L317.829 54.3759L315.703 56.5017L332.376 62.0577L334.501 59.932ZM309.495 62.71L300.096 72.1089L311.212 83.2211L326.167 68.266L309.495 62.71ZM340.71 53.7236L370.635 23.7979C371.24 23.1967 371.571 22.3912 371.563 21.5307C371.563 20.6662 371.233 19.8607 370.631 19.2595L364.058 12.6858C362.855 11.4795 360.722 11.4755 359.523 12.6858L324.037 48.1676L340.71 53.7236Z" fill="#F8B0B0"/>
<path fill-rule="evenodd" clip-rule="evenodd" d="M138.244 196.017C129.963 212.28 131.425 231.594 143.093 243.261C149.847 250 159.156 253.328 168.955 253.324C180.024 253.324 191.718 249.08 201.042 240.719C207.844 234.617 214.037 227.677 219.302 221.646C227.08 212.745 233.681 204.258 239.224 196.017H229.671C224.978 202.609 219.573 209.397 213.392 216.471C208.276 222.326 202.276 229.057 195.797 234.868C185.596 244.012 172.134 247.332 161.038 244.542C165.431 242.872 169.619 240.381 173.018 238.157C178.559 234.526 184.032 229.976 190.241 223.831C197.427 216.722 204.606 209.249 212.19 200.982C213.631 199.409 215.141 197.751 216.704 196.017H206.075C198.699 204.052 191.708 211.325 184.712 218.243C178.889 224.007 173.804 228.247 168.712 231.579C162.323 235.764 157.167 238.067 153.305 238.503L195.791 196.017H184.68L147.981 232.715C148.11 231.76 148.303 230.762 148.629 229.705C151.211 221.316 157.395 212.192 167.034 202.553C169.126 200.42 171.285 198.259 173.568 196.017H162.445C162.112 196.355 161.78 196.692 161.45 197.029C151.643 206.836 145.077 216.373 141.819 225.418C139.452 216.187 141.328 205.303 147.284 196.017H138.244Z" fill="#F8B0B0"/>
<mask id="path-8-inside-3_10_439" fill="white">
<path fill-rule="evenodd" clip-rule="evenodd" d="M78.0919 129.026C86.4581 130.071 94.5393 121.266 96.3391 108.943C98.1872 96.2892 92.7121 84.7172 84.11 83.0964C78.7926 82.0946 73.5251 85.1296 69.8411 90.5825C63.2973 88.3521 56.9411 89.2564 53.2767 93.6112C47.6035 100.353 50.5311 112.813 59.8157 121.441C65.5539 126.773 72.3773 129.394 78.0919 129.026Z"/>
</mask>
<path d="M96.3391 108.943L88.4231 107.787L88.4231 107.787L96.3391 108.943ZM78.0919 129.026L79.0832 121.088L78.3329 120.994L77.5783 121.043L78.0919 129.026ZM84.11 83.0964L85.5912 75.2348L85.5912 75.2348L84.11 83.0964ZM69.8411 90.5825L67.2602 98.1547L73.0473 100.127L76.47 95.0611L69.8411 90.5825ZM53.2767 93.6112L47.1554 88.4605L53.2767 93.6112ZM59.8157 121.441L54.37 127.301L54.37 127.301L59.8157 121.441ZM88.4231 107.787C87.7205 112.598 85.8358 116.337 83.7652 118.609C81.6748 120.902 79.9717 121.199 79.0832 121.088L77.1007 136.965C84.5783 137.898 91.0989 134.315 95.5906 129.386C100.102 124.436 103.158 117.612 104.255 110.099L88.4231 107.787ZM82.6287 90.9581C83.6401 91.1487 85.408 92.1251 86.912 95.3038C88.3808 98.4084 89.1441 102.85 88.4231 107.787L104.255 110.099C105.382 102.382 104.332 94.7111 101.375 88.4609C98.4527 82.2849 93.182 76.665 85.5912 75.2348L82.6287 90.9581ZM76.47 95.0611C79.1253 91.1308 81.5918 90.7627 82.6287 90.9581L85.5912 75.2348C75.9934 73.4264 67.9249 79.1285 63.2122 86.1039L76.47 95.0611ZM59.398 98.7619C60.1582 97.8585 62.508 96.535 67.2602 98.1547L72.422 83.0103C64.0865 80.1692 53.7239 80.6543 47.1554 88.4605L59.398 98.7619ZM65.2615 115.581C61.6671 112.241 59.5105 108.332 58.725 104.989C57.9219 101.571 58.674 99.6224 59.398 98.7619L47.1554 88.4605C42.2063 94.3423 41.5856 101.995 43.1492 108.649C44.7303 115.378 48.6797 122.014 54.37 127.301L65.2615 115.581ZM77.5783 121.043C74.5406 121.238 69.7821 119.782 65.2615 115.581L54.37 127.301C61.3257 133.765 70.214 137.55 78.6056 137.01L77.5783 121.043Z" fill="#F8B0B0" mask="url(#path-8-inside-3_10_439)"/>
</svg>
