<svg width="100" height="88" viewBox="0 0 100 88" fill="none" xmlns="http://www.w3.org/2000/svg">
<g filter="url(#filter0_di_54_10)">
<mask id="path-1-inside-1_54_10" fill="white">
<path fill-rule="evenodd" clip-rule="evenodd" d="M44.111 21.8256C47.0234 23.2939 51.4086 21.6363 54.0487 18.0167C56.7615 14.2972 56.6043 9.91446 53.6976 8.22756C51.9005 7.18465 49.4732 7.41629 47.2408 8.62404C45.1899 7.02816 42.7049 6.44187 40.6566 7.30704C37.485 8.64672 36.5616 12.9593 38.5942 16.9394C39.8517 19.4016 41.9458 21.1598 44.111 21.8256Z"/>
</mask>
<path d="M54.0487 18.0167L52.4328 16.9013L52.4328 16.9013L54.0487 18.0167ZM44.111 21.8256L45.0861 20.0474L44.9404 19.974L44.7835 19.9257L44.111 21.8256ZM53.6976 8.22756L54.7716 6.50302L54.7716 6.50302L53.6976 8.22756ZM47.2408 8.62404L45.954 10.2051L46.9698 10.9955L48.1488 10.3577L47.2408 8.62404ZM40.6566 7.30704L41.3802 9.12923L41.3802 9.12923L40.6566 7.30704ZM38.5942 16.9394L40.3992 15.9849L38.5942 16.9394ZM52.4328 16.9013C51.3431 18.3954 49.9153 19.4494 48.5273 19.9792C47.1267 20.5138 45.9206 20.4682 45.0861 20.0474L43.1359 23.6037C45.2138 24.6513 47.6566 24.511 49.8367 23.679C52.0294 22.8421 54.1142 21.2575 55.6645 19.132L52.4328 16.9013ZM52.6235 9.95209C53.4114 10.4093 53.9245 11.2695 53.9692 12.515C54.0145 13.7789 53.5546 15.3633 52.4328 16.9013L55.6645 19.132C57.2556 16.9506 58.0735 14.4839 57.9918 12.2048C57.9094 9.90732 56.8905 7.73269 54.7716 6.50302L52.6235 9.95209ZM48.1488 10.3577C49.9737 9.37035 51.61 9.36392 52.6235 9.95209L54.7716 6.50302C52.191 5.00538 48.9727 5.46222 46.3328 6.89043L48.1488 10.3577ZM41.3802 9.12923C42.5138 8.65041 44.2399 8.87128 45.954 10.2051L48.5276 7.04299C46.1399 5.18504 42.896 4.23333 39.933 5.48485L41.3802 9.12923ZM40.3992 15.9849C39.5521 14.3261 39.3769 12.7027 39.6422 11.4638C39.9029 10.246 40.55 9.47989 41.3802 9.12923L39.933 5.48485C37.5915 6.47387 36.1912 8.53385 35.7055 10.8023C35.2243 13.0497 35.6038 15.5726 36.7893 17.894L40.3992 15.9849ZM44.7835 19.9257C43.169 19.4293 41.4527 18.0477 40.3992 15.9849L36.7893 17.894C38.2507 20.7556 40.7225 22.8903 43.4385 23.7254L44.7835 19.9257Z" fill="#FFB5B5" mask="url(#path-1-inside-1_54_10)"/>
<mask id="path-3-inside-2_54_10" fill="white">
<path fill-rule="evenodd" clip-rule="evenodd" d="M25.1986 31.6456C27.1263 31.8483 28.9876 30.1178 29.4023 27.6964C29.8285 25.2084 28.5659 22.9331 26.5824 22.6145C25.3561 22.4174 24.1412 23.0144 23.2917 24.0869C21.7829 23.6485 20.3174 23.8263 19.4725 24.6825C18.1644 26.0082 18.8394 28.458 20.9804 30.1544C22.3048 31.2039 23.88 31.7191 25.1986 31.6456Z"/>
</mask>
<path d="M29.4023 27.6964L27.3864 27.249L29.4023 27.6964ZM25.1986 31.6456L25.2795 29.7004L25.1081 29.6824L24.938 29.6919L25.1986 31.6456ZM26.5824 22.6145L26.781 20.6849L26.5824 22.6145ZM23.2917 24.0869L22.8272 25.9566L24.1543 26.3422L24.9498 25.3379L23.2917 24.0869ZM19.4725 24.6825L21.002 26.0788L19.4725 24.6825ZM20.9804 30.1544L19.7462 31.6268L19.7462 31.6268L20.9804 30.1544ZM27.3864 27.249C27.241 28.098 26.8468 28.7806 26.3891 29.2092C25.9223 29.6464 25.5102 29.7247 25.2795 29.7004L25.1177 33.5908C26.8147 33.7692 28.2971 33.0836 29.3465 32.1008C30.4051 31.1095 31.1489 29.7162 31.4182 28.1439L27.3864 27.249ZM26.3838 24.544C26.5735 24.5745 26.8524 24.7042 27.1074 25.1638C27.3697 25.6365 27.5364 26.3735 27.3864 27.249L31.4182 28.1439C31.6944 26.5314 31.4429 24.8867 30.6846 23.5201C29.9189 22.1403 28.5748 20.9731 26.781 20.6849L26.3838 24.544ZM24.9498 25.3379C25.5279 24.6081 26.1102 24.5001 26.3838 24.544L26.781 20.6849C24.6019 20.3348 22.7546 21.4207 21.6337 22.8358L24.9498 25.3379ZM21.002 26.0788C21.1773 25.9012 21.7555 25.6452 22.8272 25.9566L23.7563 22.2171C21.8103 21.6517 19.4575 21.7515 17.9431 23.2862L21.002 26.0788ZM22.2145 28.682C21.4516 28.0776 21.0445 27.4109 20.9053 26.906C20.7707 26.4173 20.8945 26.1878 21.002 26.0788L17.9431 23.2862C16.7424 24.5029 16.5497 26.1611 16.9607 27.6529C17.3673 29.1284 18.3682 30.5349 19.7462 31.6268L22.2145 28.682ZM24.938 29.6919C24.2174 29.732 23.1691 29.4384 22.2145 28.682L19.7462 31.6268C21.4406 32.9693 23.5426 33.7062 25.4591 33.5993L24.938 29.6919Z" fill="#FFB5B5" mask="url(#path-3-inside-2_54_10)"/>
<path fill-rule="evenodd" clip-rule="evenodd" d="M9.48765 41.3078C9.37962 41.0931 9.21378 40.9129 9.00882 40.7875C8.80387 40.662 8.56795 40.5963 8.32765 40.5978H3.32765C3.12428 40.595 2.92305 40.6397 2.73992 40.7282C2.5568 40.8167 2.39679 40.9467 2.27259 41.1077C2.14839 41.2688 2.0634 41.4566 2.02436 41.6562C1.98532 41.8558 1.99329 42.0618 2.04765 42.2578C2.16765 42.7078 2.28765 43.1478 2.41765 43.5978C8.50765 64.2678 25.9077 79.1878 46.4177 79.1878C66.9277 79.1878 84.3177 64.2678 90.4177 43.5978C90.5477 43.1478 90.6777 42.7078 90.7977 42.2578C90.8518 42.0626 90.8599 41.8575 90.8214 41.6587C90.7829 41.4598 90.6988 41.2726 90.5757 41.1118C90.4526 40.9509 90.294 40.8208 90.1121 40.7316C89.9302 40.6424 89.7302 40.5966 89.5277 40.5978H84.9777C84.7376 40.5975 84.5022 40.6637 84.2974 40.789C84.0927 40.9143 83.9266 41.0939 83.8177 41.3078C83.7577 41.4378 83.6877 41.5578 83.6177 41.6878C83.5149 41.8871 83.4651 42.1095 83.473 42.3336C83.4808 42.5578 83.5461 42.7761 83.6625 42.9678C83.7789 43.1595 83.9426 43.3181 84.1378 43.4284C84.3331 43.5387 84.5534 43.597 84.7777 43.5978H85.4577C85.6653 43.5969 85.8703 43.6453 86.0555 43.7392C86.2408 43.8331 86.4011 43.9696 86.5232 44.1376C86.6453 44.3056 86.7257 44.5003 86.7578 44.7055C86.7898 44.9106 86.7727 45.1205 86.7077 45.3178C80.3077 63.5578 64.5277 76.1878 46.4177 76.1878C28.3077 76.1878 12.5277 63.5578 6.12765 45.3178C6.06058 45.1213 6.04153 44.9116 6.0721 44.7063C6.10268 44.5009 6.18199 44.3059 6.3034 44.1375C6.42481 43.9691 6.58478 43.8322 6.76994 43.7383C6.9551 43.6444 7.16005 43.5962 7.36765 43.5978H8.52765C8.75191 43.597 8.97222 43.5387 9.16748 43.4284C9.36274 43.3181 9.52641 43.1595 9.64282 42.9678C9.75923 42.7761 9.82449 42.5578 9.83234 42.3336C9.84019 42.1095 9.79037 41.8871 9.68765 41.6878L9.48765 41.3078Z" fill="#FFB5B5"/>
<path fill-rule="evenodd" clip-rule="evenodd" d="M88.7577 2.90767L90.5377 4.67767C91.0633 5.18545 91.4136 5.84744 91.5377 6.56767C91.6195 7.07159 91.5797 7.58778 91.4213 8.07314C91.263 8.5585 90.9909 8.99894 90.6277 9.35767L71.8977 27.9977C71.8716 28.0243 71.8405 28.0454 71.8061 28.0598C71.7718 28.0743 71.7349 28.0817 71.6977 28.0817C71.6604 28.0817 71.6235 28.0743 71.5892 28.0598C71.5548 28.0454 71.5237 28.0243 71.4977 27.9977L69.2977 25.8077C69.2715 25.7795 69.2397 25.757 69.2045 25.7417C69.1692 25.7263 69.1311 25.7184 69.0927 25.7184C69.0542 25.7184 69.0161 25.7263 68.9809 25.7417C68.9456 25.757 68.9139 25.7795 68.8877 25.8077L62.4877 32.1677C62.4551 32.1996 62.4315 32.2394 62.4192 32.2833C62.4069 32.3272 62.4064 32.3735 62.4177 32.4177C62.5698 33.161 62.6369 33.9192 62.6177 34.6777V34.9977C62.6367 35.6324 62.6066 36.2676 62.5277 36.8977C62.5202 36.9666 62.4875 37.0304 62.4358 37.0765C62.384 37.1227 62.317 37.1481 62.2477 37.1477H57.7977C58.0077 36.8377 58.1977 36.5277 58.3977 36.2077L57.5277 37.0677C57.4722 37.1166 57.4016 37.1449 57.3277 37.1477H54.8877C54.8317 37.1485 54.7768 37.1325 54.73 37.1018C54.6832 37.0711 54.6467 37.0271 54.6251 36.9754C54.6036 36.9237 54.598 36.8668 54.6092 36.8119C54.6203 36.7571 54.6477 36.7068 54.6877 36.6677L56.8477 34.5077C55.5223 35.2967 54.2435 36.1615 53.0177 37.0977C52.9655 37.1132 52.9099 37.1132 52.8577 37.0977H49.1577L50.3177 36.2177L50.6277 35.9977C52.0874 34.8585 53.6062 33.797 55.1777 32.8177C51.5937 33.5676 48.1945 35.0225 45.1777 37.0977C45.1287 37.1124 45.0766 37.1124 45.0277 37.0977H42.0077C41.945 37.1014 41.883 37.084 41.8315 37.0482C41.7799 37.0125 41.7419 36.9605 41.7234 36.9005C41.705 36.8406 41.7072 36.7762 41.7297 36.7176C41.7523 36.6591 41.7938 36.6098 41.8477 36.5777C49.2377 31.4177 55.3777 29.4777 60.4777 30.6477H60.5877H60.8077L67.2677 24.2177C67.2943 24.1916 67.3154 24.1605 67.3298 24.1261C67.3443 24.0918 67.3517 24.0549 67.3517 24.0177C67.3517 23.9804 67.3443 23.9435 67.3298 23.9092C67.3154 23.8749 67.2943 23.8437 67.2677 23.8177L65.4077 21.9977C65.3811 21.9716 65.3599 21.9405 65.3455 21.9061C65.3311 21.8718 65.3236 21.8349 65.3236 21.7977C65.3236 21.7604 65.3311 21.7235 65.3455 21.6892C65.3599 21.6549 65.3811 21.6237 65.4077 21.5977L84.1877 2.90767C84.8057 2.32471 85.6231 2 86.4727 2C87.3222 2 88.1397 2.32471 88.7577 2.90767ZM27.3277 50.9077C27.0677 50.9077 26.9677 50.9677 26.9177 51.0777C24.7877 55.6677 25.3077 60.9977 28.6277 64.2577C30.662 66.193 33.3806 67.243 36.1877 67.1777C39.6526 67.1401 42.9846 65.8386 45.5577 63.5177C47.4335 61.7857 49.2033 59.9423 50.8577 57.9977C52.7363 55.8805 54.4957 53.6604 56.1277 51.3477C56.1574 51.305 56.1747 51.2548 56.1776 51.2028C56.1804 51.1509 56.1687 51.0991 56.1438 51.0534C56.1189 51.0077 56.0817 50.9698 56.0365 50.9441C55.9912 50.9184 55.9397 50.9057 55.8877 50.9077H53.7777C53.7336 50.908 53.6901 50.918 53.6504 50.937C53.6106 50.956 53.5756 50.9836 53.5477 51.0177C52.2577 52.7877 50.7877 54.6077 49.1277 56.4977C47.5222 58.3785 45.8058 60.1617 43.9877 61.8377C42.6408 63.0815 41.0152 63.984 39.2473 64.4695C37.4794 64.955 35.6209 65.0092 33.8277 64.6277C35.059 64.1352 36.2354 63.5151 37.3377 62.7777C39.1348 61.5558 40.8093 60.1626 42.3377 58.6177C44.4377 56.5477 46.5277 54.3777 48.7477 51.9777L49.7477 50.8877H46.7477C46.6973 50.9111 46.6554 50.9495 46.6277 50.9977C44.6277 53.1577 42.7077 55.1277 40.7877 56.9977C39.3653 58.4446 37.8007 59.7445 36.1177 60.8777C34.7767 61.8563 33.2427 62.5381 31.6177 62.8777L43.1477 51.3677C43.1876 51.3285 43.215 51.2783 43.2261 51.2234C43.2373 51.1686 43.2317 51.1116 43.2102 51.06C43.1887 51.0083 43.1521 50.9643 43.1053 50.9335C43.0585 50.9028 43.0036 50.8869 42.9477 50.8877H40.5077C40.4707 50.8871 40.434 50.8939 40.3997 50.9077C40.3653 50.9214 40.3341 50.9418 40.3077 50.9677L30.0177 61.1977C30.0553 60.8994 30.1189 60.6049 30.2077 60.3177C30.9577 57.8877 32.7677 55.2377 35.5877 52.4377C36.0877 51.9277 36.5877 51.4377 37.1377 50.8877H34.0177C33.9406 50.8898 33.8666 50.918 33.8077 50.9677C31.6374 53.0404 29.8619 55.4902 28.5677 58.1977C28.5387 58.2504 28.4941 58.2928 28.4401 58.3191C28.386 58.3453 28.325 58.3541 28.2657 58.3442C28.2064 58.3344 28.1516 58.3063 28.109 58.2639C28.0663 58.2215 28.0379 58.1669 28.0277 58.1077C27.7269 55.7569 28.1934 53.3719 29.3577 51.3077C29.3821 51.2653 29.3951 51.2172 29.3952 51.1683C29.3953 51.1194 29.3826 51.0712 29.3583 51.0287C29.334 50.9863 29.299 50.9509 29.2568 50.9261C29.2146 50.9014 29.1666 50.8881 29.1177 50.8877L27.3277 50.9077ZM78.4977 18.2377L73.6277 16.6277L73.0077 17.2477L77.8777 18.8577L78.4977 18.2377ZM71.0677 19.1677L68.6277 21.5777C68.5998 21.603 68.5775 21.6339 68.5622 21.6683C68.5469 21.7027 68.539 21.74 68.539 21.7777C68.539 21.8153 68.5469 21.8526 68.5622 21.887C68.5775 21.9215 68.5998 21.9524 68.6277 21.9777L71.4677 24.8077C71.4937 24.8343 71.5248 24.8554 71.5592 24.8698C71.5935 24.8843 71.6304 24.8917 71.6677 24.8917C71.7049 24.8917 71.7418 24.8843 71.7761 24.8698C71.8105 24.8554 71.8416 24.8343 71.8677 24.8077L75.7377 20.9977C75.773 20.964 75.7988 20.9217 75.8128 20.875C75.8267 20.8283 75.8282 20.7787 75.8171 20.7312C75.806 20.6837 75.7826 20.64 75.7494 20.6043C75.7162 20.5686 75.6742 20.5422 75.6277 20.5277L71.3677 19.1177C71.3177 19.0985 71.2636 19.093 71.2108 19.1018C71.1581 19.1106 71.1087 19.1334 71.0677 19.1677ZM80.1477 16.3877C80.1979 16.4023 80.2511 16.4036 80.302 16.3913C80.3528 16.379 80.3996 16.3536 80.4377 16.3177L89.0577 7.74767C89.2311 7.57178 89.3283 7.33469 89.3283 7.08767C89.3283 6.84065 89.2311 6.60356 89.0577 6.42767L87.1377 4.51767C86.9545 4.35461 86.7179 4.26451 86.4727 4.26451C86.2275 4.26451 85.9908 4.35461 85.8077 4.51767L75.8077 14.5177C75.7724 14.5513 75.7465 14.5936 75.7325 14.6403C75.7186 14.6871 75.7171 14.7366 75.7282 14.7841C75.7394 14.8316 75.7627 14.8754 75.7959 14.9111C75.8291 14.9468 75.8711 14.9732 75.9177 14.9877L80.1477 16.3877Z" fill="#FFB5B5"/>
<path d="M13.8477 47.3754L14.4977 39.9954C14.513 39.7761 14.6117 39.571 14.7735 39.4223C14.9353 39.2735 15.1479 39.1923 15.3677 39.1954H15.4277C15.5537 39.194 15.6786 39.22 15.7936 39.2716C15.9086 39.3232 16.0111 39.3992 16.0938 39.4943C16.1766 39.5894 16.2376 39.7014 16.2728 39.8224C16.308 39.9435 16.3165 40.0707 16.2977 40.1954L15.6277 47.5254C15.6078 47.7429 15.5078 47.9453 15.347 48.0932C15.1862 48.241 14.9761 48.3238 14.7577 48.3254H14.7277C14.606 48.3258 14.4855 48.3009 14.3739 48.2524C14.2623 48.2038 14.162 48.1327 14.0793 48.0434C13.9966 47.9541 13.9333 47.8487 13.8934 47.7337C13.8536 47.6187 13.838 47.4967 13.8477 47.3754ZM24.0377 41.8954L26.2977 39.8154C26.3825 39.7369 26.4822 39.6762 26.5908 39.6367C26.6994 39.5972 26.8148 39.5797 26.9303 39.5853C27.0457 39.5909 27.1589 39.6194 27.2632 39.6692C27.3674 39.719 27.4608 39.7891 27.5377 39.8754L28.1077 40.4954L27.4977 47.4954C27.4778 47.7129 27.3778 47.9153 27.217 48.0632C27.0562 48.2111 26.8461 48.2938 26.6277 48.2954H26.5577C26.4368 48.2944 26.3175 48.2685 26.207 48.2194C26.0966 48.1702 25.9975 48.0989 25.9159 48.0098C25.8343 47.9206 25.7719 47.8156 25.7326 47.7013C25.6934 47.587 25.678 47.4659 25.6877 47.3454L25.9377 44.5354C25.9516 44.3594 25.9123 44.1834 25.8249 44.03C25.7375 43.8767 25.606 43.7532 25.4475 43.6755C25.289 43.5979 25.1108 43.5697 24.9361 43.5946C24.7613 43.6196 24.5981 43.6965 24.4677 43.8154L23.8077 44.4354C23.635 44.5913 23.4077 44.6726 23.1753 44.6613C22.9429 44.6501 22.7245 44.5473 22.5677 44.3754L22.0177 43.7754C21.9018 43.6512 21.7526 43.5631 21.5878 43.5219C21.423 43.4806 21.2499 43.4879 21.0892 43.5429C20.9285 43.5978 20.7871 43.6981 20.6822 43.8317C20.5772 43.9652 20.5131 44.1263 20.4977 44.2954L20.2177 47.4954C20.1978 47.7129 20.0978 47.9153 19.937 48.0632C19.7762 48.2111 19.5661 48.2938 19.3477 48.2954H19.2777C19.1568 48.2944 19.0375 48.2685 18.927 48.2194C18.8166 48.1702 18.7175 48.0989 18.6359 48.0098C18.5543 47.9206 18.4919 47.8156 18.4526 47.7013C18.4134 47.587 18.3981 47.4659 18.4077 47.3454L18.9777 40.8254C18.9977 40.6074 19.0974 40.4045 19.2577 40.2554L19.7677 39.7854C19.8525 39.7069 19.9522 39.6462 20.0608 39.6067C20.1694 39.5672 20.2848 39.5497 20.4003 39.5553C20.5157 39.5609 20.6289 39.5894 20.7332 39.6392C20.8374 39.689 20.9308 39.7591 21.0077 39.8454L22.7977 41.8454C22.9558 42.0159 23.175 42.1168 23.4074 42.1262C23.6397 42.1356 23.8663 42.0526 24.0377 41.8954ZM30.2377 47.3754L30.8877 39.9954C30.903 39.7761 31.0017 39.571 31.1635 39.4223C31.3253 39.2735 31.5379 39.1923 31.7577 39.1954H39.0977C39.2241 39.1942 39.3492 39.2203 39.4646 39.2718C39.5801 39.3233 39.683 39.3991 39.7665 39.494C39.85 39.5889 39.9121 39.7007 39.9485 39.8217C39.985 39.9427 39.9949 40.0702 39.9777 40.1954V40.2654C39.9578 40.4829 39.8578 40.6853 39.697 40.8332C39.5362 40.9811 39.3261 41.0638 39.1077 41.0654H33.4177C33.1992 41.067 32.9892 41.1497 32.8284 41.2976C32.6676 41.4455 32.5675 41.6479 32.5477 41.8654V41.9354C32.5381 42.0559 32.5534 42.177 32.5926 42.2913C32.6319 42.4056 32.6943 42.5106 32.7759 42.5998C32.8575 42.6889 32.9566 42.7602 33.067 42.8094C33.1775 42.8585 33.2968 42.8844 33.4177 42.8854H38.0677C38.1895 42.8845 38.3102 42.909 38.4221 42.9572C38.5339 43.0054 38.6346 43.0763 38.7177 43.1654L39.3777 43.8954C39.4568 43.985 39.517 44.0896 39.5548 44.203C39.5926 44.3164 39.6072 44.4363 39.5977 44.5554L39.4177 46.7154C39.3958 46.9329 39.2964 47.1352 39.1377 47.2854L38.2277 48.1154C38.0674 48.2643 37.8564 48.3466 37.6377 48.3454H31.1177C30.9941 48.346 30.8718 48.3207 30.7587 48.2709C30.6457 48.2212 30.5443 48.1482 30.4613 48.0567C30.3783 47.9652 30.3155 47.8572 30.2769 47.7399C30.2384 47.6225 30.225 47.4983 30.2377 47.3754ZM37.6277 45.7054V45.6354C37.6449 45.5102 37.635 45.3827 37.5985 45.2617C37.5621 45.1407 37.5 45.0289 37.4165 44.934C37.333 44.8391 37.2301 44.7633 37.1146 44.7118C36.9992 44.6603 36.8741 44.6342 36.7477 44.6354H33.0477C32.8286 44.6347 32.6173 44.7167 32.456 44.865C32.2947 45.0133 32.1953 45.217 32.1777 45.4354V45.5054C32.168 45.6267 32.1836 45.7487 32.2234 45.8637C32.2633 45.9787 32.3266 46.0841 32.4093 46.1734C32.492 46.2627 32.5923 46.3339 32.7039 46.3824C32.8155 46.4309 32.936 46.4558 33.0577 46.4554H36.7577C36.9685 46.4553 37.1722 46.3796 37.3319 46.2419C37.4916 46.1043 37.5965 45.9139 37.6277 45.7054ZM42.0277 47.3754L42.7177 39.9954C42.7353 39.777 42.8347 39.5733 42.996 39.425C43.1573 39.2767 43.3686 39.1947 43.5877 39.1954H43.6277C43.7541 39.1942 43.8792 39.2203 43.9946 39.2718C44.1101 39.3233 44.213 39.3991 44.2965 39.494C44.38 39.5889 44.4421 39.7007 44.4785 39.8217C44.515 39.9427 44.5249 40.0702 44.5077 40.1954L43.8577 47.5454C43.84 47.7638 43.7407 47.9675 43.5794 48.1158C43.4181 48.2641 43.2068 48.3461 42.9877 48.3454H42.9277C42.8058 48.3433 42.6857 48.3159 42.575 48.2649C42.4643 48.2139 42.3654 48.1405 42.2846 48.0493C42.2037 47.9581 42.1427 47.8511 42.1054 47.7351C42.068 47.6191 42.0552 47.4966 42.0677 47.3754H42.0277ZM48.9277 39.2454H54.7077C54.8281 39.2441 54.9474 39.2683 55.0578 39.3166C55.1681 39.3649 55.2669 39.436 55.3477 39.5254C55.5277 39.7154 55.7477 39.9554 56.0077 40.2554C56.0888 40.3437 56.1504 40.4481 56.1883 40.5619C56.2262 40.6756 56.2396 40.7961 56.2277 40.9154L56.0477 43.0754C56.027 43.2882 55.9313 43.4867 55.7777 43.6354L54.8677 44.4654C54.7049 44.6102 54.4955 44.6918 54.2777 44.6954H49.4777C49.2592 44.697 49.0492 44.7797 48.8884 44.9276C48.7276 45.0755 48.6275 45.2779 48.6077 45.4954L48.4277 47.4954C48.41 47.7138 48.3107 47.9175 48.1494 48.0658C47.9881 48.2141 47.7768 48.2961 47.5577 48.2954H47.4977C47.3768 48.2944 47.2575 48.2685 47.147 48.2194C47.0366 48.1702 46.9375 48.0989 46.8559 48.0098C46.7743 47.9206 46.7119 47.8156 46.6726 47.7013C46.6334 47.587 46.618 47.4659 46.6277 47.3454L47.1977 40.8354C47.2165 40.6221 47.3125 40.423 47.4677 40.2754L48.3777 39.4454C48.5447 39.3114 48.7536 39.2406 48.9677 39.2454H48.9277ZM48.9277 41.8654V41.9254C48.9104 42.0506 48.9204 42.1781 48.9568 42.2991C48.9932 42.4201 49.0553 42.5319 49.1388 42.6268C49.2223 42.7217 49.3253 42.7975 49.4407 42.849C49.5561 42.9005 49.6813 42.9266 49.8077 42.9254H53.4977C53.7168 42.9261 53.9281 42.8441 54.0894 42.6958C54.2507 42.5475 54.35 42.3438 54.3677 42.1254V41.9954C54.3865 41.8707 54.378 41.7435 54.3428 41.6224C54.3076 41.5014 54.2466 41.3894 54.1638 41.2943C54.0811 41.1992 53.9786 41.1232 53.8636 41.0716C53.7486 41.02 53.6237 40.994 53.4977 40.9954H49.7977C49.5677 40.998 49.348 41.0905 49.1854 41.2531C49.0228 41.4157 48.9303 41.6355 48.9277 41.8654ZM59.3777 48.3254H59.3077C59.1864 48.3259 59.0663 48.3011 58.9552 48.2524C58.844 48.2038 58.7443 48.1324 58.6624 48.043C58.5804 47.9535 58.5181 47.8479 58.4794 47.7329C58.4407 47.618 58.4265 47.4962 58.4377 47.3754L59.0777 39.9954C59.0953 39.777 59.1947 39.5733 59.356 39.425C59.5173 39.2767 59.7286 39.1947 59.9477 39.1954H60.0177C60.1437 39.194 60.2686 39.22 60.3836 39.2716C60.4986 39.3232 60.6011 39.3992 60.6838 39.4943C60.7666 39.5894 60.8276 39.7014 60.8628 39.8224C60.898 39.9435 60.9065 40.0707 60.8877 40.1954L60.7377 41.9354C60.7265 42.0562 60.7407 42.178 60.7794 42.2929C60.8181 42.4079 60.8804 42.5135 60.9624 42.603C61.0443 42.6924 61.144 42.7638 61.2552 42.8124C61.3663 42.8611 61.4864 42.8859 61.6077 42.8854H62.6777C62.8964 42.8866 63.1074 42.8043 63.2677 42.6554L66.2677 39.8454C66.3519 39.7663 66.451 39.7048 66.5593 39.6645C66.6675 39.6241 66.7827 39.6058 66.8982 39.6104C67.0136 39.6151 67.1269 39.6427 67.2316 39.6916C67.3362 39.7405 67.4301 39.8098 67.5077 39.8954C67.6618 40.0663 67.7429 40.2907 67.7335 40.5206C67.7242 40.7505 67.6252 40.9676 67.4577 41.1254L65.2377 43.1954C65.0658 43.3522 64.963 43.5706 64.9517 43.803C64.9405 44.0354 65.0217 44.2628 65.1777 44.4354L66.9877 46.4354C67.1436 46.608 67.2248 46.8354 67.2136 47.0678C67.2023 47.3002 67.0995 47.5186 66.9277 47.6754L66.8277 47.7654C66.6546 47.9079 66.4332 47.9781 66.2096 47.9613C65.986 47.9446 65.7776 47.8421 65.6277 47.6754L63.1177 44.9954C63.0351 44.9049 62.9348 44.8325 62.8229 44.7826C62.7111 44.7327 62.5901 44.7064 62.4677 44.7054H61.2977C61.0786 44.7047 60.8673 44.7867 60.706 44.935C60.5447 45.0833 60.4453 45.287 60.4277 45.5054L60.2477 47.5054C60.2326 47.7265 60.1346 47.9338 59.9733 48.0858C59.812 48.2378 59.5993 48.3234 59.3777 48.3254ZM71.4977 48.3254L70.9177 47.6954C70.7564 47.5293 70.6662 47.3069 70.6662 47.0754C70.6662 46.8439 70.7564 46.6215 70.9177 46.4554L78.1477 39.8154C78.2325 39.7369 78.3322 39.6762 78.4408 39.6367C78.5494 39.5972 78.6648 39.5797 78.7803 39.5853C78.8957 39.5909 79.0089 39.6194 79.1132 39.6692C79.2175 39.719 79.3108 39.7891 79.3877 39.8754L79.9577 40.4954L79.3377 47.4954C79.3178 47.7129 79.2178 47.9153 79.057 48.0632C78.8962 48.2111 78.6861 48.2938 78.4677 48.2954H78.4077C78.286 48.2958 78.1655 48.2709 78.0539 48.2224C77.9423 48.1739 77.842 48.1027 77.7593 48.0134C77.6766 47.9241 77.6133 47.8187 77.5734 47.7037C77.5336 47.5887 77.518 47.4667 77.5277 47.3454L77.7777 44.5354C77.7948 44.3595 77.758 44.1825 77.672 44.028C77.5861 43.8735 77.4551 43.7489 77.2966 43.6707C77.138 43.5925 76.9594 43.5645 76.7845 43.5903C76.6097 43.6162 76.4468 43.6947 76.3177 43.8154L73.4277 46.4754H74.8277C74.9541 46.4742 75.0792 46.5003 75.1946 46.5518C75.3101 46.6033 75.413 46.6791 75.4965 46.774C75.58 46.8689 75.6421 46.9807 75.6785 47.1017C75.715 47.2227 75.7249 47.3502 75.7077 47.4754V47.5454C75.6878 47.7629 75.5878 47.9653 75.427 48.1132C75.2662 48.261 75.0561 48.3438 74.8377 48.3454L71.4977 48.3254Z" fill="#FFB5B5"/>
</g>
<defs>
<filter id="filter0_di_54_10" x="0" y="0" width="99.5791" height="87.1875" filterUnits="userSpaceOnUse" color-interpolation-filters="sRGB">
<feFlood flood-opacity="0" result="BackgroundImageFix"/>
<feColorMatrix in="SourceAlpha" type="matrix" values="0 0 0 0 0 0 0 0 0 0 0 0 0 0 0 0 0 0 127 0" result="hardAlpha"/>
<feOffset dx="3" dy="3"/>
<feGaussianBlur stdDeviation="2.5"/>
<feComposite in2="hardAlpha" operator="out"/>
<feColorMatrix type="matrix" values="0 0 0 0 0 0 0 0 0 0 0 0 0 0 0 0 0 0 0.92 0"/>
<feBlend mode="normal" in2="BackgroundImageFix" result="effect1_dropShadow_54_10"/>
<feBlend mode="normal" in="SourceGraphic" in2="effect1_dropShadow_54_10" result="shape"/>
<feColorMatrix in="SourceAlpha" type="matrix" values="0 0 0 0 0 0 0 0 0 0 0 0 0 0 0 0 0 0 127 0" result="hardAlpha"/>
<feOffset dx="-1" dy="-1"/>
<feGaussianBlur stdDeviation="1"/>
<feComposite in2="hardAlpha" operator="arithmetic" k2="-1" k3="1"/>
<feColorMatrix type="matrix" values="0 0 0 0 0 0 0 0 0 0 0 0 0 0 0 0 0 0 0.45 0"/>
<feBlend mode="normal" in2="shape" result="effect2_innerShadow_54_10"/>
</filter>
</defs>
</svg>
